<?xml version="1.0" encoding="UTF-8"?>
<svg width="6px" height="283px" viewBox="0 0 6 283" version="1.1" xmlns="http://www.w3.org/2000/svg" xmlns:xlink="http://www.w3.org/1999/xlink">
    <!-- Generator: Sketch 46.2 (44496) - http://www.bohemiancoding.com/sketch -->
    <title>Oval</title>
    <desc>Created with Sketch.</desc>
    <defs></defs>
    <g id="Page-1" stroke="none" stroke-width="1" fill="none" fill-rule="evenodd">
        <g id="About-Us" transform="translate(-1408.000000, -1584.000000)" fill="#23CF5F">
            <g id="Timeline" transform="translate(909.000000, 624.000000)">
                <g id="content" transform="translate(0.000000, 144.000000)">
                    <g id="Group-3" transform="translate(93.000000, 730.000000)">
                        <g id="Oval" transform="translate(406.000000, 85.000000)">
                            <polyline id="Fill-328" points="3.286 283.432 3.204 283.35 3.286 283.268 3.368 283.35 3.286 283.432"></polyline>
                            <polyline id="Fill-340" points="3.286 276.092 3.163 275.971 3.286 275.848 3.409 275.971 3.286 276.092"></polyline>
                            <path d="M3.286,268.775 C3.185,268.775 3.102,268.693 3.102,268.592 C3.102,268.49 3.185,268.406 3.286,268.406 C3.388,268.406 3.47,268.49 3.47,268.592 C3.47,268.693 3.388,268.775 3.286,268.775" id="Fill-352"></path>
                            <path d="M3.286,261.457 C3.15,261.457 3.04,261.348 3.04,261.211 C3.04,261.076 3.15,260.967 3.286,260.967 C3.422,260.967 3.531,261.076 3.531,261.211 C3.531,261.348 3.422,261.457 3.286,261.457" id="Fill-364"></path>
                            <path d="M3.286,254.141 C3.116,254.141 2.979,254.002 2.979,253.832 C2.979,253.664 3.116,253.525 3.286,253.525 C3.456,253.525 3.593,253.664 3.593,253.832 C3.593,254.002 3.456,254.141 3.286,254.141" id="Fill-376"></path>
                            <path d="M3.286,246.822 C3.083,246.822 2.918,246.656 2.918,246.453 C2.918,246.25 3.083,246.086 3.286,246.086 C3.49,246.086 3.654,246.25 3.654,246.453 C3.654,246.656 3.49,246.822 3.286,246.822" id="Fill-388"></path>
                            <path d="M3.286,239.504 C3.049,239.504 2.855,239.312 2.855,239.074 C2.855,238.838 3.049,238.644 3.286,238.644 C3.522,238.644 3.716,238.838 3.716,239.074 C3.716,239.312 3.522,239.504 3.286,239.504" id="Fill-400"></path>
                            <path d="M3.286,232.186 C3.015,232.186 2.795,231.967 2.795,231.695 C2.795,231.424 3.015,231.203 3.286,231.203 C3.558,231.203 3.777,231.424 3.777,231.695 C3.777,231.967 3.558,232.186 3.286,232.186" id="Fill-412"></path>
                            <path d="M3.286,224.867 C2.98,224.867 2.733,224.621 2.733,224.314 C2.733,224.01 2.98,223.762 3.286,223.762 C3.592,223.762 3.839,224.01 3.839,224.314 C3.839,224.621 3.592,224.867 3.286,224.867" id="Fill-424"></path>
                            <path d="M3.286,217.551 C2.947,217.551 2.672,217.275 2.672,216.935 C2.672,216.598 2.947,216.322 3.286,216.322 C3.625,216.322 3.899,216.598 3.899,216.935 C3.899,217.275 3.625,217.551 3.286,217.551" id="Fill-436"></path>
                            <path d="M3.286,210.23 C2.913,210.23 2.61,209.932 2.61,209.557 C2.61,209.184 2.913,208.883 3.286,208.883 C3.658,208.883 3.962,209.184 3.962,209.557 C3.962,209.932 3.658,210.23 3.286,210.23" id="Fill-448"></path>
                            <path d="M3.286,202.914 C2.88,202.914 2.549,202.584 2.549,202.178 C2.549,201.769 2.88,201.441 3.286,201.441 C3.692,201.441 4.023,201.769 4.023,202.178 C4.023,202.584 3.692,202.914 3.286,202.914" id="Fill-460"></path>
                            <path d="M3.286,195.596 C2.846,195.596 2.488,195.24 2.488,194.799 C2.488,194.357 2.846,194 3.286,194 C3.727,194 4.084,194.357 4.084,194.799 C4.084,195.24 3.727,195.596 3.286,195.596" id="Fill-472"></path>
                            <path d="M3.286,188.26 C2.822,188.26 2.447,187.883 2.447,187.42 C2.447,186.955 2.822,186.58 3.286,186.58 C3.75,186.58 4.125,186.955 4.125,187.42 C4.125,187.883 3.75,188.26 3.286,188.26" id="Fill-484"></path>
                            <path d="M3.286,180.941 C2.789,180.941 2.386,180.537 2.386,180.039 C2.386,179.543 2.789,179.141 3.286,179.141 C3.784,179.141 4.186,179.543 4.186,180.039 C4.186,180.537 3.784,180.941 3.286,180.941" id="Fill-496"></path>
                            <path d="M3.286,173.623 C2.755,173.623 2.325,173.191 2.325,172.66 C2.325,172.131 2.755,171.697 3.286,171.697 C3.817,171.697 4.247,172.131 4.247,172.66 C4.247,173.191 3.817,173.623 3.286,173.623" id="Fill-508"></path>
                            <path d="M3.286,166.305 C2.721,166.305 2.263,165.848 2.263,165.281 C2.263,164.715 2.721,164.258 3.286,164.258 C3.851,164.258 4.31,164.715 4.31,165.281 C4.31,165.848 3.851,166.305 3.286,166.305" id="Fill-520"></path>
                            <path d="M3.286,158.988 C2.687,158.988 2.201,158.502 2.201,157.902 C2.201,157.303 2.687,156.818 3.286,156.818 C3.885,156.818 4.37,157.303 4.37,157.902 C4.37,158.502 3.885,158.988 3.286,158.988" id="Fill-532"></path>
                            <path d="M3.286,151.689 C2.642,151.689 2.12,151.168 2.12,150.523 C2.12,149.879 2.642,149.357 3.286,149.357 C3.931,149.357 4.452,149.879 4.452,150.523 C4.452,151.168 3.931,151.689 3.286,151.689" id="Fill-544"></path>
                            <path d="M3.286,144.371 C2.608,144.371 2.058,143.822 2.058,143.145 C2.058,142.465 2.608,141.916 3.286,141.916 C3.964,141.916 4.514,142.465 4.514,143.145 C4.514,143.822 3.964,144.371 3.286,144.371" id="Fill-556"></path>
                            <path d="M3.286,137.033 C2.585,137.033 2.018,136.465 2.018,135.766 C2.018,135.064 2.585,134.496 3.286,134.496 C3.987,134.496 4.555,135.064 4.555,135.766 C4.555,136.465 3.987,137.033 3.286,137.033" id="Fill-568"></path>
                            <path d="M3.286,129.715 C2.552,129.715 1.956,129.119 1.956,128.385 C1.956,127.65 2.552,127.057 3.286,127.057 C4.02,127.057 4.616,127.65 4.616,128.385 C4.616,129.119 4.02,129.715 3.286,129.715" id="Fill-580"></path>
                            <path d="M3.286,122.398 C2.518,122.398 1.895,121.775 1.895,121.006 C1.895,120.236 2.518,119.615 3.286,119.615 C4.055,119.615 4.678,120.236 4.678,121.006 C4.678,121.775 4.055,122.398 3.286,122.398" id="Fill-592"></path>
                            <path d="M3.286,115.08 C2.483,115.08 1.834,114.43 1.834,113.627 C1.834,112.824 2.483,112.174 3.286,112.174 C4.088,112.174 4.739,112.824 4.739,113.627 C4.739,114.43 4.088,115.08 3.286,115.08" id="Fill-604"></path>
                            <path d="M3.286,107.762 C2.449,107.762 1.771,107.082 1.771,106.248 C1.771,105.412 2.449,104.732 3.286,104.732 C4.123,104.732 4.8,105.412 4.8,106.248 C4.8,107.082 4.123,107.762 3.286,107.762" id="Fill-616"></path>
                            <path d="M3.286,100.445 C2.416,100.445 1.711,99.738 1.711,98.867 C1.711,97.998 2.416,97.293 3.286,97.293 C4.156,97.293 4.861,97.998 4.861,98.867 C4.861,99.738 4.156,100.445 3.286,100.445" id="Fill-628"></path>
                            <path d="M3.286,93.127 C2.382,93.127 1.648,92.395 1.648,91.49 C1.648,90.584 2.382,89.852 3.286,89.852 C4.19,89.852 4.924,90.584 4.924,91.49 C4.924,92.395 4.19,93.127 3.286,93.127" id="Fill-640"></path>
                            <path d="M3.286,85.809 C2.348,85.809 1.588,85.047 1.588,84.111 C1.588,83.172 2.348,82.412 3.286,82.412 C4.225,82.412 4.984,83.172 4.984,84.111 C4.984,85.047 4.225,85.809 3.286,85.809" id="Fill-652"></path>
                            <path d="M3.286,78.49 C2.313,78.49 1.526,77.703 1.526,76.73 C1.526,75.76 2.313,74.971 3.286,74.971 C4.259,74.971 5.046,75.76 5.046,76.73 C5.046,77.703 4.259,78.49 3.286,78.49" id="Fill-664"></path>
                            <path d="M3.286,71.172 C2.28,71.172 1.465,70.357 1.465,69.352 C1.465,68.346 2.28,67.531 3.286,67.531 C4.292,67.531 5.107,68.346 5.107,69.352 C5.107,70.357 4.292,71.172 3.286,71.172" id="Fill-676"></path>
                            <path d="M3.286,63.853 C2.247,63.853 1.403,63.012 1.403,61.973 C1.403,60.932 2.247,60.09 3.286,60.09 C4.325,60.09 5.169,60.932 5.169,61.973 C5.169,63.012 4.325,63.853 3.286,63.853" id="Fill-688"></path>
                            <path d="M3.286,56.537 C2.212,56.537 1.343,55.666 1.343,54.594 C1.343,53.52 2.212,52.648 3.286,52.648 C4.36,52.648 5.229,53.52 5.229,54.594 C5.229,55.666 4.36,56.537 3.286,56.537" id="Fill-700"></path>
                            <path d="M3.286,49.219 C2.179,49.219 1.281,48.322 1.281,47.213 C1.281,46.107 2.179,45.209 3.286,45.209 C4.393,45.209 5.291,46.107 5.291,47.213 C5.291,48.322 4.393,49.219 3.286,49.219" id="Fill-712"></path>
                            <path d="M3.286,41.881 C2.155,41.881 1.24,40.963 1.24,39.834 C1.24,38.705 2.155,37.787 3.286,37.787 C4.416,37.787 5.332,38.705 5.332,39.834 C5.332,40.963 4.416,41.881 3.286,41.881" id="Fill-724"></path>
                            <path d="M3.286,34.562 C2.122,34.562 1.178,33.619 1.178,32.455 C1.178,31.291 2.122,30.348 3.286,30.348 C4.45,30.348 5.395,31.291 5.395,32.455 C5.395,33.619 4.45,34.562 3.286,34.562" id="Fill-736"></path>
                            <path d="M3.286,27.244 C2.088,27.244 1.117,26.273 1.117,25.076 C1.117,23.879 2.088,22.906 3.286,22.906 C4.484,22.906 5.455,23.879 5.455,25.076 C5.455,26.273 4.484,27.244 3.286,27.244" id="Fill-748"></path>
                            <path d="M3.286,19.926 C2.055,19.926 1.056,18.93 1.056,17.697 C1.056,16.465 2.055,15.467 3.286,15.467 C4.518,15.467 5.517,16.465 5.517,17.697 C5.517,18.93 4.518,19.926 3.286,19.926" id="Fill-760"></path>
                            <path d="M3.286,12.609 C2.019,12.609 0.994,11.584 0.994,10.318 C0.994,9.051 2.019,8.025 3.286,8.025 C4.553,8.025 5.578,9.051 5.578,10.318 C5.578,11.584 4.553,12.609 3.286,12.609" id="Fill-772"></path>
                            <path d="M3.286,5.291 C1.986,5.291 0.933,4.238 0.933,2.939 C0.933,2.133 1.337,1.422 1.955,0.998 L4.617,0.998 C5.235,1.422 5.64,2.133 5.64,2.939 C5.64,4.238 4.586,5.291 3.286,5.291" id="Fill-784"></path>
                        </g>
                    </g>
                </g>
            </g>
        </g>
    </g>
</svg>