<?xml version="1.0" encoding="iso-8859-1"?>
<!-- Generator: Adobe Illustrator 19.0.0, SVG Export Plug-In . SVG Version: 6.00 Build 0)  -->
<svg xmlns="http://www.w3.org/2000/svg" xmlns:xlink="http://www.w3.org/1999/xlink" version="1.1" id="Capa_1" x="0px" y="0px" viewBox="0 0 512 512" style="enable-background:new 0 0 512 512;" xml:space="preserve" width="512px" height="512px">
<g>
	<g>
		<path d="M489.493,52.779h-70.009c6.693-5.213,11.011-13.339,11.011-22.46c0-15.693-12.768-28.462-28.462-28.462    c-15.694,0-28.462,12.768-28.462,28.462c0,4.795,1.196,9.312,3.299,13.28l-10.031,9.179H229.216    c-4.342-10.176-14.447-17.328-26.192-17.328c-11.745,0-21.849,7.151-26.192,17.328H22.508C10.097,52.779,0,62.876,0,75.286v55.409    c0,4.143,3.359,7.503,7.503,7.503c4.143,0,7.503-3.359,7.503-7.503V75.286c0-4.137,3.365-7.503,7.503-7.503h152.328    c0.395,2.874,1.21,5.615,2.398,8.152l-63.276,57.324c-4.471-2.927-9.809-4.637-15.541-4.637    c-15.693,0-28.462,12.768-28.462,28.462s12.768,28.462,28.462,28.462s28.462-12.768,28.462-28.462    c0-4.525-1.066-8.804-2.953-12.606l63.023-57.095c4.578,3.145,10.114,4.991,16.075,4.991c8.056,0,15.334-3.369,20.517-8.766    l51.093,30.346c-0.371,1.832-0.567,3.725-0.567,5.664c0,15.693,12.768,28.462,28.462,28.462s28.462-12.768,28.462-28.462    c0-4.083-0.87-7.964-2.426-11.478l44.103-40.357h116.824c4.137,0,7.503,3.365,7.503,7.503v185.389    c0,4.144,3.359,7.503,7.503,7.503c4.143,0,7.503-3.358,7.503-7.503V75.286C512,62.876,501.903,52.779,489.493,52.779z     M98.417,170.543c-7.42,0-13.457-6.036-13.457-13.456c0-7.421,6.037-13.457,13.457-13.457s13.457,6.036,13.457,13.457    C111.873,164.507,105.837,170.543,98.417,170.543z M203.024,77.369c-7.42,0-13.457-6.036-13.457-13.457    c0-7.42,6.037-13.457,13.457-13.457s13.457,6.036,13.457,13.457C216.481,71.333,210.444,77.369,203.024,77.369z M302.529,133.074    c-7.419,0-13.457-6.036-13.457-13.457c0-7.42,6.037-13.457,13.457-13.457s13.457,6.036,13.457,13.457    C315.985,127.038,309.948,133.074,302.529,133.074z M319.076,96.483c-4.667-3.348-10.379-5.327-16.548-5.327    c-8.36,0-15.887,3.623-21.099,9.381l-50.703-30.114c0.203-0.865,0.368-1.746,0.49-2.639h119.224L319.076,96.483z M402.032,43.776    c-7.419,0-13.457-6.036-13.457-13.457c0-7.421,6.037-13.457,13.457-13.457s13.457,6.036,13.457,13.457    C415.49,37.74,409.453,43.776,402.032,43.776z" fill="#2484da"/>
	</g>
</g>
<g>
	<g>
		<path d="M512,290.686c0-4.144-3.359-7.503-7.503-7.503c-4.143,0-7.503,3.358-7.503,7.503v56.441h-55.239V169.4v-30.62v-31.044    c0-4.144-3.359-7.503-7.503-7.503h-56.44c-4.143,0-7.503,3.358-7.503,7.503v31.044v30.62v177.727h-28.06V308.93v-30.62v-31.044    c0-4.144-3.359-7.503-7.503-7.503h-56.44c-4.143,0-7.503,3.358-7.503,7.503v31.044v30.62v38.197h-28.059V212.085v-30.62v-31.043    c0-4.144-3.359-7.503-7.503-7.503h-56.44c-4.143,0-7.503,3.358-7.503,7.503v31.043v30.62v41.984c0,4.144,3.359,7.503,7.503,7.503    s7.503-3.358,7.503-7.503v-34.482h41.435v127.54h-41.435v-63.048c0-4.144-3.359-7.503-7.503-7.503s-7.503,3.358-7.503,7.503    v63.048h-28.059V308.93v-30.62v-31.044c0-4.144-3.359-7.503-7.503-7.503H79.301c-4.143,0-7.503,3.358-7.503,7.503v31.044v30.62    v38.197H15.005V160.705c0-4.144-3.359-7.503-7.503-7.503c-4.143,0-7.503,3.358-7.503,7.503v248.318    c0,12.41,10.096,22.508,22.508,22.508H186.83l-4.279,37.279h-35.621c-4.143,0-7.503,3.358-7.503,7.503v26.328    c0,4.144,3.359,7.503,7.503,7.503h218.143c4.143,0,7.503-3.358,7.503-7.503v-26.328c0-4.144-3.359-7.503-7.503-7.503h-35.621    l-4.279-37.279h164.322c12.411,0,22.508-10.097,22.508-22.508c0-0.049-0.006-54.201-0.007-54.249    c0.001-0.048,0.007-0.095,0.007-0.144V290.686z M385.317,115.238h41.435v16.038h-41.435V115.238z M385.317,146.282h41.435v15.615    h-41.435V146.282z M385.317,176.903h41.435v170.225h-41.435V176.903z M285.812,254.769h41.435v16.038h-41.435V254.769z     M285.812,285.813h41.435v15.615h-41.435V285.813z M285.812,316.433h41.435v30.694h-41.435V316.433z M186.307,173.961v-16.038    h41.435v16.038H186.307z M186.308,204.582v-15.615h41.435v15.615H186.308z M86.804,254.769h41.434v16.038H86.804V254.769z     M86.804,285.813h41.434v15.615H86.804V285.813z M86.804,316.433h41.434v30.694H86.804V316.433z M357.569,483.814v11.323H154.432    v-11.323H357.569z M197.654,468.809l4.279-37.279h108.133l4.279,37.279H197.654z M489.493,416.526H22.508    c-4.136,0-7.503-3.365-7.503-7.503V362.42h481.989v46.603h0.001C496.995,413.161,493.629,416.526,489.493,416.526z" fill="#2484da"/>
	</g>
</g>
<g>
</g>
<g>
</g>
<g>
</g>
<g>
</g>
<g>
</g>
<g>
</g>
<g>
</g>
<g>
</g>
<g>
</g>
<g>
</g>
<g>
</g>
<g>
</g>
<g>
</g>
<g>
</g>
<g>
</g>
</svg>
