<?xml version="1.0" standalone="no"?>
<!DOCTYPE svg PUBLIC "-//W3C//DTD SVG 20010904//EN"
 "http://www.w3.org/TR/2001/REC-SVG-20010904/DTD/svg10.dtd">
<svg version="1.0" xmlns="http://www.w3.org/2000/svg"
 width="671.000000pt" height="688.000000pt" viewBox="0 0 671.000000 688.000000"
 preserveAspectRatio="xMidYMid meet">
<metadata>
Created by potrace 1.15, written by Peter Selinger 2001-2017
</metadata>
<g transform="translate(0.000000,688.000000) scale(0.100000,-0.100000)"
fill="#000000" stroke="none">
<path d="M1705 6865 c-33 -7 -89 -18 -125 -24 -84 -14 -177 -44 -265 -86 -38
-18 -101 -47 -140 -64 -141 -64 -260 -148 -370 -262 l-104 -108 12 -37 c6 -21
22 -48 34 -60 13 -13 23 -28 23 -33 0 -6 6 -8 14 -5 8 3 19 -3 26 -16 13 -24
106 -117 131 -130 8 -5 32 -7 52 -6 21 2 40 -1 43 -5 3 -5 18 -9 34 -9 16 0
35 -7 44 -15 17 -17 30 -20 21 -5 -10 16 58 11 79 -5 23 -17 40 -20 31 -5 -4
7 37 9 127 5 207 -8 341 -16 348 -20 3 -2 31 -5 61 -6 40 -1 58 -7 70 -22 28
-34 42 -12 34 52 -4 31 -9 103 -11 161 -2 58 -6 155 -9 215 -3 61 -7 169 -10
240 -2 72 -7 160 -11 198 l-6 67 -37 -1 c-20 0 -63 -7 -96 -14z"/>
<path d="M1423 5577 c-3 -6 -1 -13 6 -15 8 -3 7 -8 -5 -16 -15 -11 -15 -14 0
-28 14 -14 14 -17 0 -22 -24 -9 -24 -9 -24 28 0 19 -4 37 -9 40 -5 4 -7 -4 -4
-16 4 -22 4 -22 -10 -5 -13 16 -15 16 -21 2 -3 -9 -2 -13 3 -10 12 7 25 -31
16 -45 -3 -6 1 -7 9 -4 11 4 16 0 16 -11 0 -12 5 -15 16 -11 10 4 24 -2 35
-15 22 -25 25 -36 6 -20 -15 11 -77 11 -77 -1 0 -5 15 -8 34 -8 18 0 39 -7 46
-15 10 -12 10 -15 -3 -15 -19 0 -31 -30 -17 -44 8 -8 17 -5 30 12 24 29 25 29
155 7 22 -4 27 -3 18 6 -6 6 -9 18 -6 27 5 12 1 14 -15 10 -12 -3 -26 -1 -31
6 -7 9 -1 13 23 14 36 3 62 -18 53 -43 -4 -8 -2 -17 4 -20 5 -4 7 -10 5 -14
-3 -4 10 -7 27 -8 18 -1 24 1 14 4 -11 3 -16 11 -13 19 3 9 1 12 -4 9 -6 -3
-10 0 -10 9 0 8 -2 20 -5 28 -4 10 12 12 78 10 82 -4 82 -4 85 21 2 28 -1 29
-149 42 -54 4 -68 2 -73 -10 -3 -8 -11 -15 -18 -15 -9 0 -9 3 2 11 11 8 12 12
3 16 -7 2 -13 11 -13 19 0 15 -43 30 -59 19 -6 -3 -17 -3 -23 1 -18 11 -48 12
-48 2 0 -17 -16 -7 -17 11 -1 16 3 17 38 11 23 -4 39 -3 39 2 0 6 6 8 13 5 8
-3 14 1 14 9 0 17 -23 19 -31 2 -5 -10 -7 -10 -12 0 -5 10 -9 10 -20 1 -11 -9
-15 -8 -19 3 -7 17 -42 21 -52 5z"/>
<path d="M1510 5346 c0 -8 6 -16 13 -19 6 -2 -13 -3 -45 -2 -31 2 -62 6 -70
11 -10 6 -10 5 1 -9 8 -11 25 -16 44 -15 17 1 32 -3 35 -10 2 -6 12 -12 21
-12 10 0 18 -7 18 -15 0 -12 -7 -14 -31 -9 -17 4 -35 7 -41 6 -5 0 -33 -1 -61
-3 -49 -2 -50 -3 -35 -21 19 -22 22 -23 15 -3 -5 12 5 15 59 15 36 0 69 -5 72
-11 4 -5 18 -15 32 -20 18 -7 22 -13 16 -22 -16 -20 -23 -46 -14 -52 5 -2 17
7 26 21 9 15 13 24 7 20 -5 -3 -9 6 -9 19 0 30 12 32 27 5 13 -25 30 -26 30
-2 1 16 1 16 11 0 7 -13 5 -24 -8 -43 -17 -23 -51 -37 -38 -15 3 6 1 10 -4 10
-6 0 -11 -6 -11 -14 0 -17 33 -31 38 -17 2 6 8 9 13 6 5 -3 22 -8 39 -10 24
-3 30 0 30 16 0 12 -7 19 -20 19 -19 0 -26 24 -21 67 2 11 -40 43 -74 57 -6 3
-3 9 5 16 12 8 9 9 -12 4 -23 -5 -28 -2 -34 20 -7 27 -24 36 -24 12z"/>
<path d="M1716 5311 c-3 -5 -16 -7 -28 -3 -14 3 -19 1 -14 -6 3 -6 -3 -17 -15
-26 l-22 -15 26 -12 c14 -6 34 -8 44 -5 17 7 17 8 1 20 -10 7 -15 16 -12 19 4
3 13 0 21 -8 11 -11 11 -19 3 -36 -7 -11 -9 -23 -6 -27 3 -3 6 -2 6 3 0 4 7 2
15 -5 19 -15 47 -6 39 14 -5 12 0 13 30 5 20 -5 52 -13 72 -18 29 -8 38 -6 51
9 13 15 20 16 39 8 26 -12 32 -28 12 -28 -7 -1 2 -7 20 -15 18 -8 31 -19 27
-25 -3 -5 -1 -10 5 -10 7 0 10 7 6 15 -6 17 9 21 19 4 4 -6 14 -8 22 -5 8 3
12 2 9 -3 -3 -4 14 -9 37 -9 23 -1 67 -6 97 -11 58 -9 74 -6 50 9 -8 6 -11 10
-6 10 5 0 18 -8 28 -17 16 -14 21 -15 28 -4 4 8 15 11 24 8 9 -4 16 -2 16 3 0
9 -28 14 -57 11 -6 -1 -14 7 -18 18 -3 11 -14 21 -23 23 -12 2 -13 6 -5 11 6
4 18 0 26 -8 9 -8 20 -15 25 -15 6 0 12 -4 14 -10 2 -6 19 -5 45 2 50 12 68 7
76 -21 3 -12 1 -19 -3 -16 -14 9 -20 -11 -14 -45 5 -22 9 -28 15 -18 7 10 9
10 9 1 0 -7 5 -13 11 -13 6 0 9 8 7 18 -6 22 20 26 39 6 18 -18 16 -25 -4 -17
-15 6 -16 5 -3 -9 11 -11 37 -16 98 -17 50 -1 81 2 78 7 -3 5 13 3 37 -6 23
-8 63 -15 89 -16 27 0 48 -5 48 -9 0 -5 9 -5 20 -2 12 4 27 1 35 -5 12 -10 15
-9 15 8 0 16 -5 19 -22 14 -17 -4 -20 -2 -15 11 8 20 -4 23 -118 33 -56 4 -81
9 -65 13 24 7 210 5 216 -2 5 -5 116 2 122 8 3 3 -12 5 -34 6 -107 2 -134 4
-134 10 0 4 -7 10 -16 13 -11 4 -15 2 -11 -7 4 -10 -3 -13 -21 -11 -53 6 -67
9 -74 19 -5 6 -12 4 -18 -5 -8 -13 -10 -12 -10 3 0 10 -4 16 -9 12 -6 -3 -15
3 -21 12 -9 15 -10 14 -5 -9 3 -16 1 -28 -5 -28 -9 0 -12 14 -9 36 2 14 -26
23 -34 11 -7 -9 -10 -9 -14 1 -2 6 -18 12 -34 12 -20 0 -28 -4 -23 -11 3 -6 0
-15 -7 -20 -11 -7 -9 -9 6 -9 16 0 17 -2 5 -10 -17 -11 -32 7 -25 31 4 12 -3
18 -25 22 -16 4 -30 11 -30 17 0 7 8 9 19 5 14 -4 21 0 26 15 5 16 10 18 19
11 7 -6 17 -7 21 -3 5 4 5 2 1 -5 -4 -7 -13 -10 -21 -6 -8 3 -15 0 -15 -6 0
-15 27 -14 58 3 15 8 35 17 45 20 10 3 15 11 11 17 -4 8 -9 7 -15 -2 -7 -11
-9 -11 -9 -1 0 7 -8 12 -17 11 -10 -1 -20 0 -23 1 -19 8 -98 7 -113 -2 -14 -7
-17 -7 -13 1 4 6 0 11 -8 11 -9 0 -16 -7 -16 -15 0 -8 -5 -15 -11 -15 -6 0 -9
7 -5 15 4 12 -2 14 -30 10 -21 -2 -32 0 -29 5 6 10 -13 11 -185 14 -47 1 -96
6 -110 10 -24 8 -24 8 -5 -8 11 -8 26 -16 33 -16 6 0 12 -8 12 -17 0 -15 -11
-19 -56 -21 -33 -2 -62 2 -70 9 -18 15 -87 21 -78 7 4 -7 0 -7 -12 0 -11 6
-31 8 -45 5 -20 -4 -30 1 -42 21 -14 21 -15 24 -2 20 8 -4 15 -1 15 6 0 9 -11
11 -37 7 -20 -4 -42 -2 -49 4 -8 6 -14 6 -18 0z"/>
<path d="M2850 5305 c13 -16 -5 -39 -25 -32 -9 4 -13 3 -10 -2 3 -6 -2 -14
-11 -19 -10 -5 -12 -12 -6 -16 5 -3 15 1 22 9 7 8 18 15 24 15 6 0 2 -7 -8
-15 -23 -17 -21 -21 17 -30 22 -6 26 -4 21 9 -3 9 -1 16 5 16 6 0 11 -4 11
-10 0 -5 7 -10 15 -10 9 0 18 -7 21 -15 6 -14 8 -13 20 2 13 17 14 16 9 -7
l-6 -25 97 2 c54 1 103 4 110 7 16 6 54 -40 54 -65 0 -11 -7 -19 -16 -19 -8 0
-13 4 -10 8 2 4 1 14 -4 22 -6 10 -12 11 -22 2 -9 -7 -19 -8 -28 -1 -13 8 -13
10 0 20 12 8 12 10 -5 7 -12 -2 -21 -12 -23 -26 -2 -12 -11 -22 -20 -23 -11 0
-9 -4 7 -10 38 -15 203 -7 209 10 3 10 0 11 -13 4 -19 -11 -65 5 -65 22 0 14
77 17 101 4 13 -6 19 -6 19 1 0 5 -7 10 -15 10 -8 0 -15 6 -15 14 0 9 -7 13
-20 11 -12 -2 -20 2 -20 9 0 17 42 25 97 20 30 -3 46 1 59 13 17 17 17 18 -1
22 -10 2 -24 -4 -30 -13 -16 -22 -25 -20 -25 4 0 11 5 20 12 20 6 0 8 3 5 6
-4 4 -13 2 -21 -5 -20 -17 -76 -32 -76 -20 0 5 -9 9 -20 9 -17 0 -19 3 -8 19
9 15 15 17 25 9 10 -8 13 -6 13 6 0 22 -26 31 -44 17 -10 -9 -16 -9 -21 -1 -5
8 -10 8 -20 0 -9 -8 -14 -6 -19 7 -6 15 -8 15 -16 3 -7 -10 -10 -11 -10 -2 0
6 -9 12 -21 12 -13 0 -18 -4 -13 -12 5 -7 0 -9 -14 -6 -23 6 -35 -11 -22 -32
6 -10 9 -9 13 4 4 14 5 14 3 -1 -3 -34 -31 -20 -34 18 l-3 36 -119 0 c-86 -1
-117 -4 -110 -12z"/>
<path d="M1770 5175 c-7 -8 -16 -13 -20 -10 -4 2 -7 -8 -6 -23 1 -23 5 -27 31
-26 27 1 32 -4 42 -33 l10 -34 -31 6 c-17 4 -39 6 -48 6 -10 0 -20 5 -23 10
-4 5 -10 7 -15 4 -4 -3 -20 1 -35 9 -15 8 -35 12 -44 8 -13 -5 -13 -7 4 -10
41 -7 49 -12 37 -24 -17 -17 -15 -55 4 -62 24 -9 27 -8 21 13 -4 17 3 19 57
24 48 3 68 0 92 -14 17 -11 46 -19 63 -19 18 0 30 -4 27 -9 -9 -14 96 -22 112
-9 8 7 31 11 52 9 28 -2 41 2 48 15 9 16 12 16 28 4 13 -12 18 -12 21 -2 3 6
12 12 21 12 15 0 15 -2 2 -10 -13 -8 -12 -10 3 -10 9 0 17 -5 17 -11 0 -8 14
-10 43 -5 23 4 65 9 92 11 73 7 84 13 61 31 -15 11 -22 11 -34 1 -10 -8 -16
-8 -19 -2 -2 6 -19 9 -40 7 -26 -3 -34 -1 -28 8 4 6 15 10 24 7 19 -5 41 15
41 37 0 16 -44 28 -95 25 -16 -1 -73 1 -125 6 -137 10 -190 11 -190 3 0 -11
67 -21 94 -14 15 4 26 1 29 -7 4 -9 6 -9 6 1 1 19 19 14 26 -8 3 -11 13 -20
21 -20 8 0 14 -7 14 -15 0 -12 -16 -13 -90 -9 -77 4 -89 2 -84 -11 4 -8 1 -15
-6 -15 -6 0 -8 -4 -5 -10 3 -5 15 -10 26 -10 10 0 19 -4 19 -10 0 -12 -2 -12
-35 0 -14 5 -25 16 -24 22 5 44 -50 84 -98 72 -22 -5 -51 12 -39 23 4 4 37 7
72 6 35 0 64 3 64 8 0 5 -27 9 -61 9 -52 0 -62 3 -66 20 -3 11 -11 20 -19 20
-7 0 -11 -6 -8 -14 3 -7 -2 -16 -10 -19 -12 -5 -13 -2 -6 19 6 14 10 27 10 30
0 9 -18 3 -30 -11z"/>
<path d="M1393 5147 c-13 -5 -23 -14 -23 -19 0 -4 -7 -8 -16 -8 -9 0 -14 6
-11 13 3 8 -7 12 -32 13 -20 1 -27 -1 -17 -3 15 -4 16 -7 5 -15 -10 -7 -8 -8
9 -5 12 3 22 1 22 -5 0 -5 15 -8 33 -7 18 2 38 0 45 -5 6 -4 17 -4 23 0 7 4
10 1 7 -7 -3 -8 -11 -13 -18 -11 -6 1 -10 -3 -8 -10 5 -13 -19 -37 -36 -38 -6
0 -1 6 10 14 23 18 10 35 -15 19 -10 -6 -34 -10 -53 -9 -20 1 -34 -2 -32 -6 3
-5 17 -9 32 -9 24 -1 23 -3 -8 -9 l-35 -7 32 -8 c18 -4 30 -12 27 -17 -3 -5
40 -8 105 -7 85 1 109 4 102 13 -8 9 -1 11 24 8 19 -2 32 -8 29 -13 -10 -16 6
-9 27 12 25 25 24 25 -23 32 -25 4 -38 2 -38 -5 0 -6 -3 -8 -6 -5 -4 4 -1 13
6 22 10 12 9 16 -5 21 -10 4 -20 1 -25 -6 -5 -8 -17 -10 -34 -6 -14 3 -26 3
-26 -2 0 -4 -9 -8 -20 -9 -11 -1 -20 2 -20 8 0 5 9 9 20 9 11 0 20 7 20 15 0
8 6 15 13 15 9 0 8 3 -2 9 -11 7 -11 9 0 14 8 3 4 6 -9 6 -13 1 -31 5 -40 10
-10 5 -26 4 -39 -2z"/>
<path d="M1484 4959 c-3 -5 -1 -9 4 -9 5 0 12 -9 15 -19 4 -17 0 -20 -29 -17
-19 1 -34 -1 -34 -6 0 -4 16 -8 35 -8 24 0 37 -6 45 -21 7 -12 18 -18 26 -15
8 3 14 1 14 -5 0 -6 6 -9 13 -6 6 2 25 0 40 -4 39 -11 62 -2 45 19 -11 13 -10
15 9 10 13 -3 24 -1 26 7 4 8 19 11 45 8 22 -2 43 0 45 4 3 4 -27 8 -66 8 -40
0 -75 5 -79 10 -13 17 -9 27 7 21 8 -3 15 -2 15 2 0 4 11 7 25 7 14 0 25 -2
25 -5 0 -3 19 -5 43 -5 23 0 42 5 42 10 0 6 -42 11 -100 13 -55 2 -124 5 -153
6 -29 2 -55 0 -58 -5z"/>
<path d="M1823 4938 c-14 -19 -23 -48 -15 -49 4 0 18 -2 32 -3 14 -1 38 -14
54 -29 16 -15 39 -27 50 -27 12 0 32 -7 44 -16 12 -8 35 -13 50 -11 24 4 24 4
-6 6 -22 0 -32 5 -29 14 5 17 49 9 66 -11 10 -12 15 -14 18 -4 6 16 34 15 69
-3 16 -8 38 -15 49 -14 18 0 18 1 -2 9 -13 5 -23 13 -23 19 0 21 -53 41 -127
47 -70 6 -92 15 -93 36 0 4 7 5 15 2 8 -4 15 -2 15 4 0 6 8 8 19 5 11 -3 21 2
25 12 3 9 2 13 -4 10 -5 -3 -20 -1 -32 6 -15 8 -23 9 -26 1 -2 -7 -12 -7 -34
0 -21 8 -32 8 -37 0 -4 -7 -12 -8 -21 -2 -21 13 -46 12 -57 -2z"/>
<path d="M1508 4794 c7 -3 25 -18 40 -32 26 -24 26 -25 5 -19 -13 3 -23 1 -23
-4 0 -5 16 -9 35 -9 19 0 35 -4 35 -10 0 -5 -7 -10 -17 -10 -9 0 -13 -3 -10
-7 4 -3 2 -12 -4 -20 -7 -8 -8 -13 -1 -13 5 0 13 -7 16 -16 5 -13 2 -15 -14
-11 -11 3 -20 1 -20 -5 0 -6 -8 -7 -17 -3 -28 11 -83 14 -89 4 -3 -5 3 -9 13
-9 15 0 15 -2 3 -9 -8 -6 -18 -7 -22 -5 -4 3 -8 1 -8 -5 0 -5 -8 -12 -17 -15
-10 -3 -6 -4 10 -2 15 2 27 -1 27 -7 0 -5 7 -4 15 3 11 9 15 10 15 1 0 -8 16
-12 48 -10 97 6 134 0 139 -20 6 -24 29 -34 51 -23 20 10 219 9 228 -1 6 -6
58 -2 127 8 17 3 26 1 22 -5 -4 -6 16 -10 50 -10 33 0 54 4 50 10 -3 5 -13 6
-23 3 -15 -6 -15 -5 -3 10 7 9 20 17 27 17 8 0 14 9 14 20 0 11 5 20 10 20 6
0 10 -6 10 -14 0 -14 64 -31 134 -35 11 -1 16 -6 13 -15 -5 -11 12 -15 80 -18
68 -2 87 -7 98 -21 7 -10 16 -17 20 -16 14 5 74 -26 78 -40 3 -9 4 -4 4 10 -1
20 -5 25 -20 21 -15 -4 -18 0 -15 14 2 11 11 18 21 16 27 -5 20 4 -18 22 -40
19 -48 41 -11 32 15 -4 26 -1 28 6 7 19 38 1 38 -22 0 -13 7 -20 20 -20 11 0
20 5 20 10 0 6 -4 10 -10 10 -5 0 -10 7 -10 15 0 16 -42 31 -59 21 -5 -4 -12
-2 -16 4 -3 5 -11 10 -16 10 -6 0 -7 -5 -3 -12 4 -7 3 -8 -5 -4 -18 11 -210
16 -217 5 -3 -5 -10 -7 -15 -4 -19 12 -8 23 30 30 29 5 38 11 34 21 -7 18 8
18 33 -1 21 -16 48 -20 39 -6 -3 6 10 7 32 3 56 -10 103 -8 100 3 -1 5 -9 9
-17 8 -10 -2 -10 0 -2 3 17 8 15 24 -3 24 -8 0 -15 -9 -15 -20 0 -11 -5 -20
-11 -20 -5 0 -7 5 -3 11 4 7 0 9 -12 5 -11 -3 -26 -1 -34 5 -13 9 -13 10 0 8
33 -3 45 2 25 11 -32 14 -45 11 -45 -7 -1 -17 -1 -17 -11 0 -8 13 -7 22 3 34
11 14 10 16 -12 10 -21 -5 -26 -3 -27 14 -1 14 3 19 12 15 7 -2 16 0 18 7 3 9
9 8 23 -2 18 -14 18 -14 2 4 -15 16 -23 17 -65 8 -29 -7 -49 -8 -51 -2 -2 5
-8 9 -13 9 -6 0 -7 -4 -4 -10 3 -5 1 -10 -5 -10 -6 0 -13 7 -16 15 -4 11 -11
12 -24 5 -9 -5 -20 -7 -24 -3 -3 3 -42 7 -87 9 -57 1 -86 7 -98 18 -28 25 -42
20 -35 -11 7 -27 6 -28 -13 -11 -17 16 -40 18 -180 16 -88 0 -164 2 -170 5 -9
6 -95 9 -133 5 -8 -1 -37 2 -65 5 -27 4 -44 4 -37 1z"/>
<path d="M1562 4508 c-16 -16 -15 -28 3 -28 8 0 14 3 14 8 -3 20 3 23 18 11
11 -10 14 -10 9 -1 -4 6 -2 12 3 12 6 0 11 -9 11 -21 0 -15 -4 -19 -16 -15 -9
4 -23 1 -31 -5 -10 -9 -17 -9 -25 -1 -15 15 -31 15 -22 0 5 -7 2 -9 -8 -6 -8
4 -21 2 -29 -3 -10 -6 -1 -9 27 -9 26 0 47 -6 55 -17 13 -15 11 -16 -13 -9
-23 5 -28 3 -28 -12 0 -13 11 -23 33 -30 26 -8 28 -10 9 -11 -13 -1 -21 -5
-18 -10 3 -5 -16 -12 -42 -16 -26 -4 -50 -12 -54 -18 -6 -9 -11 -8 -18 3 -9
13 -11 13 -20 0 -8 -12 -3 -16 25 -18 23 -2 33 -7 29 -14 -5 -7 -1 -9 9 -5 11
4 14 2 10 -9 -3 -9 1 -14 12 -14 9 0 14 -4 11 -9 -6 -10 24 -25 32 -16 3 3 -2
13 -11 23 -21 23 -21 32 -2 32 9 0 12 -6 9 -15 -8 -20 13 -19 24 1 8 15 10 15
16 -1 4 -12 13 -15 31 -11 28 7 33 -5 9 -25 -13 -10 -17 -10 -25 2 -7 11 -9 9
-9 -8 0 -16 6 -23 19 -23 11 0 21 -9 24 -21 3 -12 10 -18 17 -14 6 4 18 1 27
-6 13 -11 18 -10 33 9 10 12 24 22 32 22 9 -1 8 -3 -3 -10 -22 -13 -13 -67 12
-73 11 -3 23 1 28 10 5 10 11 12 15 5 4 -6 13 -9 20 -6 8 3 17 0 21 -7 6 -8
13 -5 26 12 l19 24 0 -26 c0 -14 -5 -30 -12 -37 -9 -9 -7 -12 10 -12 13 0 22
-6 22 -16 0 -11 -6 -14 -22 -9 -37 12 -43 11 -43 -5 0 -10 8 -14 21 -12 15 2
23 -4 27 -19 5 -20 7 -20 22 -6 8 9 22 14 30 11 10 -4 12 0 8 15 -7 26 13 28
27 2 17 -32 12 -42 -17 -36 -16 3 -22 2 -15 -1 6 -3 12 -16 12 -29 0 -12 7
-28 15 -35 8 -7 12 -16 9 -21 -3 -5 0 -9 6 -9 8 0 10 9 6 25 -7 29 -1 32 21 9
14 -14 13 -17 -6 -38 -33 -35 -27 -47 22 -44 23 1 56 -1 72 -5 35 -8 55 2 59
29 2 12 11 19 25 18 11 0 21 5 21 13 0 7 5 13 12 13 9 0 9 3 0 12 -15 15 -16
32 -2 23 7 -4 9 3 5 22 l-6 28 20 -24 c12 -13 21 -34 21 -48 0 -16 7 -27 20
-30 11 -3 20 -10 20 -15 0 -6 -7 -8 -15 -4 -8 3 -15 0 -15 -6 0 -6 -6 -5 -16
3 -10 8 -12 15 -5 17 6 2 8 8 5 13 -3 6 -11 5 -20 -2 -18 -14 -19 -43 -1 -33
8 5 7 2 -2 -9 -16 -20 -12 -27 18 -30 21 -1 29 -23 11 -29 -7 -2 -5 -11 4 -23
14 -18 15 -18 16 -2 0 20 11 22 28 5 8 -8 15 -8 26 1 8 7 24 10 36 6 11 -4 20
-2 20 4 0 6 -9 11 -19 11 -14 0 -18 5 -14 20 3 11 14 20 25 20 10 0 16 -4 13
-10 -6 -9 8 -14 28 -11 4 1 25 2 46 3 35 1 38 3 31 22 -5 14 -21 24 -49 30
-58 13 -51 27 12 22 28 -2 54 -5 57 -6 22 -9 91 -3 95 8 3 7 0 10 -5 7 -14 -9
-12 9 2 23 9 9 9 12 -1 12 -7 0 -10 4 -6 9 3 6 -4 9 -15 8 -22 -1 -26 -12 -10
-22 11 -7 4 -25 -10 -25 -5 0 -6 8 -3 17 5 13 2 15 -12 10 -15 -6 -16 -5 -6 7
10 11 8 15 -6 19 -17 4 -17 5 0 6 11 0 30 10 44 20 27 22 58 17 48 -7 -3 -8
-1 -19 6 -22 8 -5 8 -13 0 -27 -15 -30 20 -42 130 -42 79 0 90 1 74 13 -11 8
-16 20 -12 30 5 11 1 16 -13 16 -11 0 -20 5 -20 11 0 5 4 8 8 5 5 -3 16 4 26
15 14 16 20 18 32 9 8 -7 14 -19 14 -26 0 -8 5 -14 10 -14 18 0 10 31 -12 51
-14 10 -18 18 -10 19 7 0 10 5 6 12 -4 7 -3 8 4 4 7 -4 12 -1 12 8 0 9 5 16
10 16 6 0 4 13 -5 30 -15 28 -45 42 -45 20 0 -5 6 -10 14 -10 21 0 30 -20 17
-33 -8 -8 -11 -6 -11 6 0 9 -4 17 -10 17 -5 0 -10 -6 -10 -14 0 -19 -52 -17
-67 3 -7 9 -13 24 -13 34 0 14 6 16 29 12 32 -6 52 12 30 26 -11 7 -9 10 9 15
13 4 22 14 22 25 0 25 -6 24 -34 -6 -13 -14 -30 -25 -37 -25 -11 0 -11 2 -1 8
24 16 2 42 -36 42 -19 0 -32 3 -28 7 4 4 15 8 23 8 9 0 17 6 19 13 1 7 1 9 -2
4 -2 -4 -22 -6 -44 -4 -23 2 -47 -1 -55 -8 -11 -9 -15 -9 -15 -1 0 13 20 23
53 26 12 1 22 4 22 5 0 1 13 3 29 4 16 0 31 6 33 13 3 8 -11 11 -47 9 -28 -1
-53 1 -56 5 -2 4 -24 6 -49 5 -25 -2 -45 0 -45 5 0 5 -7 6 -15 3 -8 -4 -15 -1
-15 5 0 6 8 11 18 11 14 0 15 2 2 10 -8 5 -12 10 -7 11 4 1 12 3 17 4 6 1 15
3 21 4 5 0 7 6 3 13 -8 13 12 3 39 -20 11 -10 17 -11 17 -4 0 7 -5 12 -11 12
-6 0 -9 6 -6 13 3 8 -2 14 -11 16 -43 4 -93 1 -108 -7 -9 -5 -35 -5 -61 -1
-25 5 -50 6 -55 3 -6 -4 -8 2 -6 12 2 11 15 21 33 25 l30 7 -27 1 c-16 0 -28
6 -28 12 0 5 5 7 11 3 8 -4 8 0 0 15 -14 25 -21 26 -47 6 -16 -13 -17 -16 -4
-25 8 -5 11 -10 6 -10 -6 0 -5 -5 2 -12 7 -7 12 -27 12 -46 0 -37 2 -37 94
-20 10 1 21 -3 23 -10 4 -10 -2 -11 -24 -6 -16 4 -25 3 -20 -2 5 -5 13 -10 18
-10 5 -1 14 -2 19 -3 7 -1 8 -14 4 -35 -6 -34 -5 -35 32 -38 34 -3 39 -6 46
-38 5 -19 13 -43 18 -52 6 -10 7 -18 4 -18 -4 0 -13 8 -20 18 -11 14 -15 15
-26 3 -11 -12 -10 -13 5 -8 18 7 24 -8 7 -18 -12 -7 -53 19 -43 28 3 4 3 7 -2
7 -4 0 -13 -7 -19 -16 -10 -13 -12 -13 -13 5 -1 14 4 21 15 21 16 1 16 1 0 11
-10 5 -18 17 -18 26 0 11 -6 14 -22 10 -12 -3 -30 -1 -41 5 -16 8 -22 7 -29
-6 -9 -16 -38 -23 -38 -8 0 20 44 44 74 39 55 -8 71 9 39 41 -13 14 -39 17
-140 18 -67 0 -126 3 -129 7 -3 3 -17 2 -30 -3 -15 -6 -24 -6 -24 0 0 18 23
22 119 21 l98 -2 -5 31 c-5 36 39 31 -420 40 -84 2 -112 6 -108 15 7 20 -60
77 -86 73 -16 -2 -22 -9 -20 -21 3 -15 -1 -17 -19 -12 -18 6 -21 4 -15 -10 5
-14 3 -16 -11 -10 -10 4 -26 7 -35 7 -13 -1 -18 7 -18 24 0 20 -5 24 -28 24
-15 0 -33 -5 -40 -12z m258 -94 c0 -8 4 -13 10 -9 5 3 19 -4 31 -16 14 -14 28
-19 44 -15 13 3 26 2 29 -2 3 -5 30 -7 60 -4 67 5 146 -5 146 -20 0 -7 -23 -9
-73 -5 -83 7 -121 1 -113 -19 7 -19 1 -18 -20 3 -15 15 -35 17 -146 15 -90 -2
-128 0 -123 7 3 6 20 11 36 11 17 0 28 3 26 8 -3 4 8 7 24 8 39 1 63 22 48 40
-9 11 -8 14 5 14 9 0 16 -7 16 -16z"/>
<path d="M2937 4188 c-26 -19 -28 -25 -21 -61 6 -37 4 -43 -22 -63 -24 -20
-26 -24 -11 -30 9 -3 17 -17 17 -30 0 -26 18 -30 55 -14 18 8 17 9 -6 9 -15 1
-29 7 -32 14 -6 17 15 45 31 39 7 -2 11 2 10 9 -2 8 9 13 30 15 28 1 35 -3 44
-25 6 -14 12 -30 12 -35 1 -5 7 -11 14 -14 9 -3 10 2 2 22 -5 14 -6 26 -3 26
4 0 2 5 -5 12 -18 18 -15 25 13 32 15 4 25 14 25 24 0 9 3 27 6 40 4 13 2 22
-5 22 -6 0 -11 -9 -11 -20 0 -11 -5 -20 -11 -20 -5 0 -7 5 -4 10 3 6 -1 17 -9
26 -9 9 -16 11 -16 4 0 -6 -6 -10 -12 -9 -30 4 -59 -2 -53 -10 3 -5 -4 -12
-15 -16 -11 -4 -18 -11 -14 -16 4 -6 11 -6 20 2 8 6 14 10 15 8 6 -30 3 -49
-8 -49 -8 0 -11 5 -8 10 3 6 2 10 -4 10 -5 0 -11 -6 -14 -12 -3 -8 -9 -3 -14
11 -8 19 -5 28 14 47 13 13 23 30 23 39 0 19 1 19 -33 -7z"/>
<path d="M6520 4094 l35 -14 -36 5 c-25 4 -40 1 -48 -9 -10 -12 -9 -13 8 -9
26 7 27 -4 1 -25 -23 -20 -30 -92 -11 -115 6 -8 8 -17 4 -19 -4 -3 -3 -3 4 -2
7 2 15 -1 18 -6 4 -6 13 -7 23 -1 9 4 38 7 65 5 54 -3 54 -3 30 73 -18 58 -43
74 -82 53 -12 -6 -21 -7 -21 -2 0 15 24 32 47 32 48 0 16 44 -34 46 l-38 2 35
-14z"/>
<path d="M1715 3912 c-3 -3 -28 -5 -56 -3 -31 1 -49 -2 -45 -8 4 -5 -3 -12
-14 -16 -11 -3 -23 -18 -27 -33 -3 -15 -13 -37 -21 -50 -11 -16 -13 -37 -8
-76 8 -69 -2 -117 -25 -123 -10 -3 -21 -13 -24 -22 -3 -9 -28 -30 -55 -46 -28
-16 -50 -32 -50 -36 0 -4 -8 -10 -18 -13 -10 -4 -36 -31 -58 -60 -32 -44 -42
-52 -53 -43 -12 10 -13 9 -4 -7 8 -15 6 -30 -9 -65 -11 -25 -20 -58 -20 -73 0
-15 -6 -32 -14 -39 -11 -9 -21 -4 -52 30 -20 22 -46 41 -57 41 -19 1 -19 1 -2
11 13 7 26 6 47 -5 35 -17 37 -13 11 16 -14 14 -28 19 -45 16 -17 -4 -26 -1
-26 8 0 39 -54 25 -69 -18 -14 -39 -14 -38 7 -38 13 0 14 -2 3 -9 -19 -12 -3
-34 20 -28 11 3 17 1 14 -4 -3 -4 0 -17 7 -28 7 -11 9 -24 5 -28 -5 -4 -12 -1
-17 7 -5 8 -12 11 -16 7 -4 -4 2 -14 13 -22 30 -21 50 -84 32 -96 -25 -16 -38
-9 -47 23 -4 18 -15 34 -24 36 -14 3 -15 -1 -2 -35 25 -71 35 -58 -160 -199
-87 -62 -118 -75 -131 -54 -3 5 -1 19 5 30 9 17 8 27 -6 48 -10 15 -17 35 -16
45 4 19 -18 23 -35 6 -8 -8 -17 -8 -33 1 -12 6 -27 9 -33 7 -7 -3 -30 -2 -52
2 l-39 6 45 22 c24 11 73 34 109 49 36 16 73 34 82 42 9 8 31 21 49 30 18 10
34 22 36 28 5 16 -46 4 -77 -19 -56 -40 -102 -67 -113 -67 -7 0 -26 -8 -43
-19 -17 -10 -40 -22 -52 -25 -20 -7 -22 -4 -22 29 0 32 -3 36 -17 30 -10 -4
-47 -10 -83 -14 l-65 -6 -13 -55 c-7 -30 -15 -65 -17 -77 -11 -49 -25 -20 -25
51 0 41 -3 77 -8 80 -4 2 -21 -2 -38 -9 -29 -12 -31 -17 -52 -131 -27 -148
-27 -176 2 -65 29 118 46 118 46 1 l0 -92 24 6 c19 5 23 2 20 -12 -13 -60
-124 -666 -124 -679 0 -9 -10 -28 -22 -41 -18 -20 -19 -24 -5 -19 9 4 17 2 17
-4 0 -5 -12 -8 -26 -7 -15 2 -29 -3 -31 -9 -3 -8 3 -13 14 -13 14 0 15 -2 4
-9 -11 -7 -9 -31 13 -137 14 -71 37 -167 50 -214 l24 -85 1 185 1 184 36 37
36 37 39 239 c60 366 63 381 67 353 3 -14 -1 -176 -8 -360 -13 -330 -10 -538
9 -695 l9 -80 -41 -65 c-23 -36 -47 -71 -54 -78 -16 -16 -16 -18 -3 -43 8 -14
22 -19 53 -20 31 -1 36 -3 19 -7 -42 -12 -18 -27 40 -25 32 1 58 -3 58 -8 0
-13 59 -11 212 7 73 8 151 13 173 10 22 -3 77 -2 122 2 45 4 79 4 77 0 -5 -8
-147 -23 -314 -33 -61 -3 -204 -14 -293 -21 -45 -4 -59 -1 -63 11 -7 17 -44
21 -44 5 0 -5 3 -10 8 -10 4 0 8 -12 9 -28 2 -37 124 -276 197 -384 l60 -89
36 6 c63 11 181 12 187 2 7 -11 182 -2 228 12 17 5 26 10 20 11 -17 2 79 30
105 30 14 0 36 8 50 17 17 12 25 13 28 5 5 -16 67 -15 84 1 34 35 290 77 372
62 21 -4 36 -3 36 3 0 8 146 23 270 27 26 1 50 4 55 6 6 3 28 7 50 8 41 2 131
10 395 36 191 18 234 19 224 3 -5 -8 0 -9 17 -5 13 4 29 7 34 7 6 0 4 4 -3 9
-15 9 49 17 213 26 72 4 94 2 80 -5 -15 -8 -7 -9 35 -5 30 3 71 6 90 6 34 2
33 2 -10 10 -38 6 -34 7 24 4 38 -1 63 1 56 5 -7 5 25 11 76 15 49 3 157 13
239 20 83 8 312 28 510 45 647 56 671 57 660 40 -10 -16 22 -12 39 5 8 9 19
16 23 15 20 -1 470 308 555 381 31 27 61 49 66 49 5 0 17 10 28 21 l19 22 -85
-7 c-47 -4 -91 -8 -97 -8 -7 -1 -13 -5 -13 -9 0 -4 -27 -5 -60 -2 -40 4 -60 2
-60 -5 0 -7 -29 -11 -77 -12 -43 0 -107 -3 -143 -5 -36 -3 -94 -7 -130 -10
-36 -2 -98 -5 -138 -5 -40 0 -70 -4 -67 -9 2 -5 -55 -12 -128 -16 -335 -17
-654 -36 -902 -54 -148 -11 -322 -22 -385 -26 -63 -3 -151 -10 -195 -15 -44
-5 -159 -14 -255 -20 -96 -5 -224 -14 -285 -20 -176 -15 -373 -31 -465 -36
-47 -3 -98 -7 -115 -9 -16 -2 -70 -6 -120 -10 -49 -3 -108 -8 -130 -11 -22 -2
-67 -7 -100 -10 -33 -3 -73 -9 -89 -14 -18 -7 -34 -6 -45 1 -13 9 -12 10 7 6
12 -3 22 -1 22 4 0 14 -33 11 -57 -6 -16 -11 -35 -14 -65 -9 -28 3 -38 2 -30
-4 9 -6 -3 -11 -40 -15 -73 -9 -88 -9 -88 3 0 6 10 10 23 10 12 0 27 8 34 19
9 14 29 20 90 25 55 4 94 14 132 34 35 18 55 23 58 16 6 -18 43 -4 43 16 0 18
43 38 95 46 11 2 39 6 63 10 23 4 45 11 49 17 4 6 -5 8 -23 3 -21 -5 -25 -4
-13 4 9 5 32 10 50 11 56 4 69 15 69 59 0 29 4 40 15 40 12 0 13 4 7 18 -10
19 -27 113 -37 207 l-6 60 -47 1 c-26 0 -65 6 -86 14 l-40 13 28 23 c29 26 74
31 108 13 11 -6 23 -8 26 -4 3 3 -3 8 -15 11 -17 5 -22 15 -25 51 -3 40 -1 46
21 55 29 11 40 -2 42 -47 1 -49 8 -77 23 -89 22 -18 28 -46 9 -46 -13 0 -15
-9 -9 -57 15 -129 29 -183 47 -183 9 0 19 5 21 11 6 17 42 17 50 0 6 -15 7
-15 7 0 1 9 12 19 25 21 20 4 25 0 30 -23 5 -28 39 -50 99 -63 25 -6 27 -4 27
24 0 29 -1 30 -47 30 l-48 0 39 21 c27 14 42 17 49 10 6 -6 26 -11 43 -11 18
0 40 -7 49 -16 9 -9 17 -15 18 -13 1 2 7 13 13 23 12 23 58 31 49 9 -3 -8 -5
-18 -5 -23 0 -4 -9 -10 -21 -13 -13 -3 -18 -10 -14 -17 5 -8 26 -10 69 -5 62
8 78 17 69 42 -7 18 15 43 33 36 8 -3 14 0 14 7 0 7 8 9 20 5 11 -4 20 -2 20
4 0 5 13 2 30 -7 16 -9 30 -20 30 -24 0 -4 8 -5 18 -2 14 5 13 3 -2 -7 -11 -6
-28 -12 -38 -13 -35 -2 -18 -19 23 -22 34 -3 40 -1 35 11 -3 8 -1 15 5 15 6 0
8 9 4 21 -5 14 -3 19 3 15 6 -3 13 0 15 6 4 10 8 10 15 -1 8 -11 10 -11 15 0
4 11 6 10 6 -2 1 -13 18 -17 50 -10 2 1 -1 7 -7 14 -8 10 -6 16 9 25 10 7 19
8 19 4 0 -5 10 -8 22 -8 14 1 27 -8 34 -23 7 -13 18 -28 26 -32 10 -7 9 -9 -4
-10 -10 -1 -22 -3 -28 -4 -5 -1 -17 -3 -26 -4 -32 -2 -1 -21 36 -21 57 0 71 8
64 36 -5 21 -3 24 19 24 29 0 77 19 92 36 6 7 24 14 40 17 23 4 36 0 56 -19
16 -16 39 -26 59 -26 17 -1 34 -6 36 -13 3 -6 11 -12 19 -12 18 0 18 -1 5 34
-9 25 -8 26 4 11 7 -10 18 -18 25 -18 6 0 11 -4 11 -9 0 -4 16 -8 35 -7 31 1
37 5 43 31 7 26 12 29 48 30 21 0 45 4 52 8 7 5 21 5 32 2 11 -4 20 -3 19 2
-6 33 4 34 36 3 26 -25 35 -30 35 -17 0 17 15 22 57 18 18 -1 21 2 16 16 -5
15 -3 16 8 6 20 -20 31 -15 19 7 -10 20 -9 21 19 24 11 1 52 -30 107 -82 41
-37 57 -43 27 -9 -41 45 -39 46 100 49 17 0 27 6 27 15 0 11 -11 14 -42 13
-57 -3 -68 -2 -68 10 0 5 20 8 45 7 25 -1 45 1 45 5 0 16 75 5 93 -13 19 -20
37 -25 37 -10 0 5 11 8 25 6 14 -1 28 2 31 6 3 5 -7 9 -23 9 -24 1 -25 2 -11
11 21 12 72 -17 64 -37 -3 -7 2 -15 10 -18 22 -9 24 -8 18 9 -6 14 6 19 44 18
6 -1 12 4 12 9 0 6 -9 8 -20 5 -20 -5 -26 3 -13 16 3 4 17 0 31 -9 31 -21 41
-10 12 14 l-23 19 38 1 c45 2 52 7 36 26 -17 21 47 28 77 8 12 -8 25 -12 29
-9 3 4 19 -3 34 -14 29 -20 40 -14 17 9 -9 9 -7 12 10 12 19 0 20 3 11 18 -6
10 -25 26 -43 35 l-31 17 27 -24 c31 -27 27 -39 -8 -26 -15 6 -24 6 -24 0 0
-17 -14 -11 -50 21 -19 17 -47 38 -62 47 -15 9 -28 20 -28 25 0 4 -4 5 -10 2
-5 -3 -10 -2 -10 4 0 6 -6 8 -13 5 -8 -3 -17 11 -25 41 -16 61 -15 85 4 85 8
0 12 5 8 11 -5 8 -1 8 14 0 25 -13 116 -15 108 -2 -4 5 -24 12 -46 16 -22 4
-38 10 -35 15 8 12 -22 32 -50 34 -17 0 -27 8 -30 21 -14 62 -22 126 -16 129
3 2 51 5 106 6 55 1 156 6 225 10 288 19 777 37 784 29 9 -9 -18 -139 -28
-139 -6 0 0 -7 12 -16 29 -20 37 -12 33 32 -2 25 1 34 13 34 8 0 18 4 21 10 3
6 -1 7 -9 4 -17 -7 -21 13 -10 52 6 24 84 60 109 50 17 -6 21 -71 5 -81 -6 -4
-8 -10 -6 -13 2 -4 -1 -38 -8 -75 -7 -37 -9 -70 -4 -73 4 -3 8 -14 8 -24 0
-10 5 -22 10 -25 6 -4 10 5 9 22 -1 26 24 199 37 252 5 23 7 23 67 16 34 -4
86 -6 115 -6 47 2 53 0 49 -16 -3 -10 -9 -37 -12 -60 -4 -24 -11 -43 -16 -43
-4 0 -6 -6 -3 -14 3 -8 -2 -55 -10 -105 -24 -139 -21 -181 16 -181 17 0 19 5
14 25 -4 17 -2 25 6 25 8 0 7 4 -3 10 -14 8 -15 17 -7 57 5 27 15 86 23 133
28 162 34 180 60 180 13 0 36 5 51 10 18 7 29 7 33 1 4 -6 12 -6 21 -1 38 24
38 14 5 -196 -36 -224 -40 -260 -26 -269 7 -4 15 -5 17 -2 4 4 44 217 44 236
0 2 11 0 25 -3 30 -8 34 10 5 19 -11 3 -20 14 -19 23 0 11 3 12 6 5 13 -32 18
-6 15 68 -5 122 -4 125 63 121 54 -4 55 -4 55 -35 0 -18 -9 -43 -20 -57 -25
-32 -25 -47 0 -62 31 -20 26 -46 -7 -42 l-28 4 30 -15 c36 -17 21 -20 -23 -4
-17 6 -37 9 -44 7 -7 -3 17 -15 53 -27 49 -16 72 -19 90 -12 13 5 20 10 14 11
-5 1 -1 5 10 9 19 8 19 9 -6 21 -21 9 -28 22 -33 54 -5 36 -1 47 33 96 23 33
47 56 60 58 16 3 20 8 16 22 -6 20 38 80 51 67 4 -4 -7 -73 -26 -152 -18 -80
-31 -147 -28 -150 11 -12 42 54 65 135 15 57 21 70 17 40 -3 -25 -8 -56 -11
-69 -4 -15 -2 -22 4 -18 6 4 21 51 33 106 20 86 25 98 41 94 15 -4 19 -15 19
-57 l0 -51 45 84 c31 56 42 87 36 95 -12 14 -4 27 30 44 14 8 37 37 52 68 l27
54 -23 5 c-12 3 -51 11 -87 18 -36 7 -65 18 -65 24 0 6 -3 14 -7 18 -3 4 -2
20 4 37 8 23 8 32 -2 38 -7 4 -8 9 -3 11 5 2 7 35 3 74 -3 39 -3 85 0 104 l5
33 145 -1 c79 -1 146 -4 149 -6 2 -3 -37 -5 -87 -5 -91 0 -92 0 -92 -25 0 -16
6 -25 15 -25 8 0 15 -4 15 -10 0 -5 -8 -10 -18 -10 -14 0 -17 -9 -17 -45 l0
-46 78 2 77 2 25 79 c34 107 34 108 -21 108 -25 0 -43 4 -40 9 3 4 17 6 31 3
15 -2 25 0 25 7 0 6 -14 11 -31 11 -24 0 -30 4 -27 18 2 13 17 18 58 23 30 3
43 6 29 7 -22 2 -29 10 -41 45 -74 214 -80 227 -106 227 -22 0 -24 -3 -19 -34
3 -18 1 -38 -5 -44 -8 -8 -5 -9 9 -6 13 4 22 0 27 -11 3 -9 2 -13 -4 -10 -6 3
-10 2 -10 -4 0 -5 4 -13 10 -16 5 -3 -2 -23 -17 -47 -15 -22 -28 -50 -28 -62
-2 -45 -7 -46 -203 -45 -103 1 -177 4 -164 6 30 6 28 23 -3 23 -14 0 -25 4
-25 9 0 17 -89 23 -315 22 -126 -1 -251 -2 -277 -3 -28 -1 -56 5 -70 14 -14 9
-50 19 -81 23 -58 7 -63 5 -58 -32 1 -9 -27 -12 -110 -10 l-112 2 -4 -25 c-2
-18 -1 -21 6 -11 8 13 12 13 27 0 16 -12 17 -12 11 4 -6 15 -4 16 14 6 17 -9
20 -8 14 2 -6 9 -3 10 11 5 26 -11 64 -15 59 -6 -2 4 17 6 42 5 45 -2 47 -3
59 -44 13 -45 16 -43 -56 -41 -25 0 -71 1 -103 2 -49 0 -57 3 -53 17 5 13 4
13 -8 -1 -7 -10 -18 -18 -25 -18 -21 0 -11 -16 12 -18 29 -4 36 -4 72 1 17 3
38 0 49 -5 10 -6 16 -6 13 -1 -4 5 20 9 54 9 l60 -1 -3 -45 -3 -45 -70 2 c-39
1 -75 2 -80 4 -6 1 -30 1 -54 0 -39 -1 -42 -3 -30 -17 7 -9 15 -12 16 -8 2 7
116 10 216 5 14 -1 17 -10 17 -53 0 -75 -8 -97 -33 -96 -12 1 -28 6 -36 12
-11 9 -13 8 -9 -4 4 -11 -2 -15 -21 -16 -14 -1 -20 1 -13 3 6 3 9 9 6 15 -4 6
-9 5 -14 -3 -7 -10 -12 -10 -26 2 -16 13 -17 12 -10 -5 7 -20 7 -20 -15 0 -17
14 -21 15 -17 4 4 -12 -1 -15 -21 -14 -14 1 -35 6 -45 10 -14 5 -17 4 -11 -5
6 -10 3 -11 -11 -4 -27 14 -371 8 -387 -6 -8 -6 -17 -8 -21 -4 -11 11 -96 11
-96 0 0 -5 -7 -3 -17 4 -13 11 -17 11 -21 1 -3 -10 -7 -10 -19 -1 -11 10 -16
10 -23 0 -5 -9 -10 -10 -14 -2 -10 16 -39 14 -30 -1 6 -10 4 -10 -7 0 -7 6
-19 12 -27 12 -8 0 -10 -5 -6 -12 5 -8 1 -8 -10 1 -14 12 -19 12 -26 2 -5 -9
-10 -10 -14 -3 -3 6 -19 8 -34 5 -15 -3 -44 -5 -64 -5 -21 0 -38 -5 -38 -10 0
-6 -7 -5 -16 3 -13 10 -17 10 -24 -1 -7 -11 -11 -11 -24 -1 -9 8 -16 9 -16 3
0 -5 -7 -12 -15 -16 -8 -3 -14 -2 -14 2 3 20 -2 25 -11 12 -8 -11 -10 -3 -8
30 l3 45 45 5 c25 3 52 10 60 15 17 11 63 131 60 155 -1 8 -3 42 -4 75 -1 33
-5 66 -9 72 -9 15 -56 14 -75 -1 -9 -7 -16 -6 -22 3 -6 11 -9 11 -14 0 -5 -11
-7 -11 -12 -1 -8 16 -25 16 -18 -1 3 -8 -1 -14 -8 -15 -7 0 -34 -3 -60 -5 -27
-3 -48 -1 -48 4 0 5 -7 9 -15 9 -9 0 -12 6 -9 15 4 10 0 15 -10 15 -13 0 -15
4 -6 19 29 55 -1 54 -35 -1 -15 -24 -24 -34 -20 -23 18 47 22 123 10 185 -6
29 -15 39 -51 58 -25 12 -50 20 -56 16 -7 -4 -6 -9 3 -15 11 -7 9 -9 -6 -9
-11 0 -29 -3 -40 -6 -16 -4 -21 0 -21 15 0 12 7 23 16 26 9 3 32 21 51 41 30
32 31 36 12 31 -22 -5 -27 2 -26 40 1 9 -9 7 -31 -5 -17 -9 -38 -17 -46 -19
-8 -1 -25 -5 -37 -9 -20 -5 -23 -3 -23 20 0 15 -4 25 -9 22 -5 -3 -12 1 -15
10 -8 22 -8 26 4 19 6 -4 7 6 3 26 -5 25 -3 31 8 27 8 -2 15 -15 17 -27 3 -18
6 -20 18 -10 17 14 18 51 2 67 -16 16 -6 15 26 -1 14 -8 23 -16 20 -19 -5 -6
43 -48 55 -48 3 0 5 33 3 72 -3 65 -7 76 -36 108 -42 45 -83 50 -156 16 -30
-14 -57 -23 -62 -20 -4 3 -8 0 -8 -5 0 -6 -6 -11 -13 -11 -11 0 -67 -45 -67
-55 0 -17 22 -55 29 -50 14 8 34 -33 28 -61 -2 -13 2 -29 9 -35 8 -6 14 -17
14 -23 0 -6 14 -28 30 -48 27 -33 29 -38 13 -46 -13 -8 -16 -22 -14 -64 3 -63
-10 -103 -47 -140 -14 -16 -20 -28 -14 -28 7 0 12 -5 12 -11 0 -6 -9 -8 -21
-4 -14 5 -19 3 -15 -4 4 -6 2 -20 -4 -32 -11 -19 -9 -20 17 -17 22 2 33 13 50
48 23 46 31 42 13 -6 -22 -56 -1 -32 35 40 20 41 43 80 50 86 7 6 2 -10 -10
-34 -25 -49 -28 -137 -6 -159 16 -16 13 -29 -6 -25 -10 1 -24 -1 -30 -5 -8 -5
-20 0 -30 13 -21 25 -35 26 -26 3 5 -15 4 -16 -8 -7 -8 6 -24 14 -36 17 -18 4
-23 1 -23 -13 0 -11 -4 -21 -9 -25 -5 -3 -54 0 -107 7 -95 11 -184 45 -184 69
0 6 -20 8 -44 7 -30 -2 -42 -7 -39 -15 3 -7 10 -13 16 -13 31 0 -14 -19 -58
-25 -46 -6 -48 -5 -31 9 10 8 23 17 28 18 11 4 -1 38 -13 38 -5 0 -14 -12 -19
-26 -6 -14 -19 -28 -30 -31 -11 -3 -20 -9 -20 -13 0 -4 -8 -10 -18 -13 -11 -2
-21 -14 -25 -26 -5 -20 -1 -21 66 -23 74 -2 221 1 292 5 26 2 64 -7 107 -25
45 -19 76 -26 95 -22 20 4 33 1 42 -10 8 -9 21 -16 31 -16 23 0 33 -37 13 -49
-15 -8 -69 -6 -142 5 l-34 5 33 20 c18 11 30 22 28 24 -2 2 -75 -1 -163 -7
-221 -14 -1184 -16 -1209 -2 -16 10 -15 12 15 19 19 4 40 7 46 6 8 -1 10 5 6
15 -6 15 -4 15 21 -1 23 -16 26 -16 20 -1 -8 21 3 21 24 0 15 -15 16 -15 23 2
4 11 8 14 8 9 1 -6 11 -16 22 -24 19 -11 21 -11 16 2 -4 11 2 14 26 13 17 -1
32 -7 34 -13 2 -6 14 -8 25 -5 21 5 21 6 2 13 -12 5 4 8 44 8 53 1 67 5 82 23
13 17 21 20 31 12 15 -11 106 -10 152 1 17 5 27 3 27 -4 0 -6 19 -11 45 -11
25 0 45 5 45 10 0 6 9 10 20 10 11 0 20 -4 20 -10 0 -5 16 -10 35 -10 27 0 35
4 35 18 0 10 5 23 11 29 16 16 -8 28 -26 13 -8 -7 -16 -10 -16 -6 -1 3 -2 9
-3 14 -1 4 -5 13 -9 20 -6 8 2 17 25 27 29 14 30 15 8 14 -43 -2 -44 0 -15 31
23 24 25 30 12 30 -10 0 -20 -7 -23 -15 -4 -8 -12 -15 -20 -15 -8 0 -14 -7
-14 -15 0 -8 -9 -20 -20 -27 -11 -7 -20 -17 -20 -22 0 -4 6 -3 14 3 11 9 16 9
22 0 4 -7 2 -15 -4 -17 -7 -2 -10 -13 -6 -28 6 -24 -9 -34 -21 -14 -3 6 -17
10 -31 10 -15 0 -24 6 -24 16 0 8 4 13 9 9 11 -6 20 6 26 33 2 14 -3 17 -23
17 -43 -2 -65 -15 -51 -31 6 -8 8 -14 3 -14 -4 0 1 -7 12 -15 17 -13 17 -14 2
-15 -10 0 -18 -4 -18 -10 0 -5 -10 -10 -22 -10 -26 1 -61 24 -51 33 3 4 -1 7
-10 7 -9 0 -17 -5 -17 -11 0 -8 -5 -7 -15 1 -12 10 -19 10 -27 2 -8 -8 -15 -6
-26 5 -9 9 -18 11 -20 5 -1 -5 -12 -8 -22 -5 -12 3 -22 -1 -26 -11 -8 -20 -36
-24 -242 -31 -123 -4 -177 -2 -191 7 -15 9 -29 7 -72 -11 -57 -25 -113 -31
-129 -15 -6 6 -12 24 -14 40 -4 29 -4 29 41 25 27 -2 80 6 129 19 75 20 84 25
84 46 0 13 8 28 18 33 15 9 14 10 -7 8 -13 -1 -26 4 -29 12 -3 10 0 12 12 8
10 -4 24 -1 32 7 12 13 11 15 -6 21 -11 3 -20 11 -20 16 0 6 3 8 8 6 4 -2 17
7 29 19 14 15 17 25 10 28 -7 2 -4 5 5 5 11 1 15 6 12 16 -5 12 2 15 32 16 22
0 32 3 24 6 -31 11 -42 26 -28 34 10 6 8 12 -7 23 -24 18 -39 21 -29 5 4 -7 2
-10 -5 -8 -7 3 -11 7 -10 9 1 3 -3 15 -9 27 -14 24 -6 29 46 29 17 -1 32 3 32
8 0 5 7 3 15 -4 10 -9 15 -9 15 -1 0 11 -13 15 -37 12 -6 -1 -14 3 -18 9 -4 6
6 8 24 6 17 -2 28 1 25 5 -3 5 -50 9 -104 9 l-100 0 10 -26 c6 -15 7 -32 1
-41 -7 -13 -10 -10 -16 15 -3 18 -11 30 -16 27 -5 -4 -6 1 -3 9 3 9 2 16 -4
16 -5 0 -12 -7 -16 -15 -3 -8 -11 -15 -18 -15 -10 0 -10 2 1 9 9 6 10 11 2 15
-6 4 -11 3 -11 -3 0 -6 -6 -9 -12 -7 -7 1 -10 1 -5 -1 13 -8 8 -33 -6 -27 -15
5 -54 -33 -44 -43 4 -3 7 -1 7 5 0 8 7 9 25 2 14 -5 32 -7 40 -4 11 5 15 -1
15 -25 0 -21 -5 -31 -15 -31 -12 0 -13 4 -5 19 16 32 12 36 -11 10 l-21 -24 7
24 c5 16 4 21 -4 17 -6 -4 -11 -13 -11 -19 -1 -7 -15 -21 -33 -33 -18 -11 -31
-28 -31 -37 1 -9 -2 -17 -7 -17 -5 0 -9 5 -9 10 0 6 -4 10 -9 10 -5 0 -11 -15
-13 -34 -2 -23 0 -32 8 -29 6 2 14 -3 17 -11 4 -10 1 -13 -9 -9 -7 3 -14 0
-14 -6 0 -6 -8 -11 -17 -11 -15 0 -16 -2 -3 -10 9 -6 17 -5 23 3 7 9 10 9 14
0 9 -23 33 -14 33 13 0 14 4 23 10 19 6 -3 10 -19 10 -35 0 -22 -6 -29 -27
-34 -17 -5 -29 -3 -35 6 -6 8 -7 5 -3 -11 6 -19 4 -23 -8 -18 -11 4 -13 0 -10
-16 9 -37 -12 -6 -31 45 -20 54 -53 90 -44 48 3 -14 8 -32 12 -41 4 -9 -19 8
-51 37 -32 30 -61 54 -65 54 -10 0 -31 40 -25 47 7 6 47 -15 75 -40 12 -11 22
-16 22 -10 0 6 -15 23 -32 37 -49 39 -62 53 -63 75 -1 17 2 18 24 9 37 -14 71
-48 71 -72 0 -12 9 -25 23 -31 12 -6 23 -20 25 -32 5 -31 18 -29 26 3 5 17 2
32 -9 43 -8 10 -15 23 -15 29 0 7 -4 12 -10 12 -5 0 -10 7 -10 15 0 8 -13 30
-30 48 -31 36 -41 58 -16 38 10 -9 16 -8 26 4 17 21 25 19 57 -14 15 -16 43
-31 60 -35 l33 -5 -25 39 c-31 50 -34 85 -5 77 15 -4 20 0 20 13 0 11 -4 21
-9 25 -18 10 21 60 60 77 32 14 41 14 64 2 27 -14 59 -9 49 8 -4 6 -10 5 -15
-3 -8 -12 -11 -12 -18 1 -5 8 -7 19 -3 25 7 10 10 25 16 62 2 14 -1 20 -10 16
-7 -2 -25 10 -41 27 -15 18 -40 38 -55 46 -30 15 -84 25 -93 16z m3969 -770
c2 -44 2 -45 -57 -44 -15 0 -25 -3 -22 -8 3 -5 23 -7 44 -4 42 5 41 6 55 -58
l6 -28 -110 0 -110 0 -2 28 c-3 47 -5 56 -22 96 -10 21 -15 43 -13 50 3 7 42
11 117 10 l112 0 2 -42z m191 35 c-8 -4 -20 -5 -25 -2 -6 3 -10 1 -10 -4 0 -6
5 -11 12 -11 6 0 19 -7 29 -16 13 -12 51 -17 170 -21 127 -4 156 -8 171 -23
15 -14 27 -16 56 -9 20 5 54 9 74 9 20 0 40 5 43 10 3 6 36 9 73 9 37 -1 58
-4 47 -6 -11 -3 -24 -11 -28 -19 -6 -11 -35 -14 -122 -14 l-114 0 4 -27 c8
-43 13 -285 8 -315 -5 -23 -11 -28 -36 -28 -72 0 -7 -13 181 -36 24 -3 42 -7
40 -9 -6 -6 -489 -47 -494 -42 -3 3 -3 24 1 45 7 44 33 59 66 39 15 -9 21 -9
28 1 4 7 33 14 67 16 77 5 74 4 74 16 0 5 -26 7 -64 4 -64 -5 -65 -5 -68 22
-2 23 -11 29 -50 41 -51 14 -46 6 -64 121 -3 20 -15 72 -27 116 -25 95 -46
112 -149 122 -37 4 -68 10 -68 13 0 4 43 7 95 7 57 0 89 -4 80 -9z m-2545
-179 c0 -4 -4 -8 -10 -8 -19 0 -10 -17 16 -29 15 -6 24 -14 21 -17 -3 -3 -15
0 -27 6 -25 13 -30 10 -33 -19 -1 -16 -6 -19 -27 -14 -14 3 -30 11 -35 18 -8
9 -49 12 -155 11 -140 -1 -145 0 -148 20 -2 12 3 21 10 21 7 1 75 3 152 6 76
3 140 7 142 9 7 8 94 4 94 -4z m-1189 -42 c10 -11 21 -18 25 -13 4 4 -1 14
-12 22 -15 11 -16 14 -3 15 8 0 21 -6 28 -12 11 -10 13 -10 7 0 -5 8 0 12 13
12 12 0 21 -6 21 -12 0 -9 2 -10 8 -2 12 19 65 13 90 -9 12 -11 22 -16 22 -10
0 6 -6 13 -12 16 -7 2 -10 8 -5 12 4 5 18 -2 32 -15 14 -13 25 -18 25 -12 0 7
-4 12 -10 12 -5 0 -10 4 -10 9 0 13 62 11 79 -3 11 -8 13 -8 8 0 -5 8 13 12
58 13 65 1 65 1 65 -27 0 -26 -3 -28 -44 -28 -25 0 -42 4 -39 9 3 5 -5 4 -17
-3 -16 -8 -25 -9 -33 -1 -7 7 -14 7 -24 0 -9 -9 -13 -8 -13 0 0 7 -5 9 -12 5
-7 -5 -34 -8 -60 -8 -43 -1 -47 1 -42 19 6 19 5 19 -7 2 -14 -18 -89 -31 -89
-15 0 4 7 8 16 8 8 0 12 5 9 11 -5 7 -14 4 -26 -7 -12 -11 -38 -18 -64 -19
-37 -2 -45 1 -45 15 0 10 -7 20 -15 24 -18 6 -20 -5 -3 -22 6 -6 9 -15 5 -19
-13 -12 -30 15 -24 39 6 21 11 24 44 20 22 -3 44 -13 54 -26z m3569 14 c15
-23 13 -140 -2 -140 -10 0 -10 -3 0 -9 8 -5 12 -17 10 -27 -3 -17 -13 -19
-101 -19 -55 0 -97 -4 -97 -10 0 -5 -5 -4 -12 3 -9 9 -6 16 12 32 13 11 20 23
16 28 -4 4 -14 -1 -21 -11 -11 -15 -13 -4 -14 75 l-2 93 101 0 c78 0 103 -4
110 -15z m-4666 -12 c18 -68 0 -109 -72 -164 -25 -19 -40 -34 -35 -34 6 0 31
18 56 40 25 22 49 40 55 40 13 0 22 -78 12 -104 -4 -11 -34 -48 -67 -81 -32
-33 -81 -85 -108 -116 -28 -31 -60 -60 -72 -63 -21 -7 -23 -4 -23 34 0 22 -7
54 -15 70 -14 27 -14 29 5 35 11 4 20 11 20 16 0 6 -9 7 -22 3 -19 -6 -21 -4
-12 7 7 8 8 22 3 34 -7 19 -8 19 -8 -2 -1 -14 -7 -23 -16 -23 -14 0 -14 3 0
30 19 36 19 35 -4 37 -13 1 -21 -6 -24 -20 -3 -21 -4 -21 -12 -3 -6 13 -3 21
8 28 10 5 17 16 17 25 0 14 2 14 15 -3 14 -19 14 -19 15 2 0 11 -5 25 -11 31
-14 14 -3 34 16 27 8 -3 31 8 52 25 21 17 42 31 47 31 6 0 21 11 35 24 28 27
122 94 132 95 4 1 9 -9 13 -21z m2081 -28 c3 6 11 7 17 4 15 -9 -8 -20 -109
-55 -102 -34 -100 -34 -106 -11 -4 13 -5 13 -6 -4 -1 -12 -20 -37 -45 -58 -35
-29 -53 -36 -86 -36 l-42 0 5 56 c2 30 9 60 15 66 16 16 144 20 155 5 5 -8 7
-5 5 8 -3 18 3 19 74 20 42 0 80 3 84 7 4 4 13 3 20 -3 8 -7 14 -7 19 1z m257
-39 c29 -15 46 -43 28 -49 -8 -3 -8 -8 0 -17 8 -10 2 -12 -33 -8 -24 3 -53 1
-63 -5 -28 -15 -97 -23 -112 -14 -9 6 -10 16 -1 40 6 18 16 32 21 32 6 0 7 11
4 25 -6 23 -4 24 19 15 13 -5 38 -8 55 -7 24 2 29 6 24 22 l-5 20 18 -20 c10
-11 30 -26 45 -34z m-1098 7 c6 11 66 3 84 -11 10 -8 12 -7 10 3 -3 15 75 21
105 7 9 -4 17 -4 17 0 0 7 39 9 68 4 13 -2 13 -121 -1 -126 -6 -2 -112 -6
-235 -9 -205 -5 -223 -4 -229 12 -3 9 -13 25 -21 35 -12 13 -12 17 -2 17 11 0
11 3 2 12 -7 7 -12 17 -12 23 1 5 10 -1 21 -14 11 -13 22 -21 25 -18 3 3 -6
18 -20 33 -29 32 -28 41 4 24 15 -8 20 -8 16 -1 -4 6 -1 11 8 11 8 0 18 -5 22
-11 5 -8 9 -7 14 1 5 8 15 10 26 5 11 -5 24 -7 31 -6 6 1 15 -4 19 -10 4 -8 3
-9 -4 -5 -7 4 -12 2 -12 -3 0 -14 13 -14 27 0 6 6 9 19 5 28 -5 14 -3 14 10 3
9 -7 19 -9 22 -4z m3021 -97 c-3 -2 0 -11 5 -21 5 -10 6 -21 2 -24 -4 -4 -7
-15 -7 -24 0 -11 -7 -16 -20 -14 -30 5 -37 4 -78 -2 -25 -3 -35 -2 -31 5 4 7
-2 6 -16 -1 -12 -6 -24 -9 -27 -6 -4 3 -13 0 -21 -7 -13 -10 -15 -9 -9 6 6 15
4 16 -15 6 -18 -10 -20 -9 -14 6 3 10 0 28 -9 41 -8 13 -11 25 -6 28 4 3 14
-6 21 -19 7 -13 19 -26 26 -29 11 -4 10 1 -2 20 -9 13 -14 28 -10 32 4 3 11 0
17 -8 8 -13 10 -13 18 -1 8 13 12 12 28 -5 10 -11 15 -15 11 -10 -12 16 -9 24
9 28 25 4 132 4 128 -1z m-3998 -58 c8 -10 11 -12 8 -5 -5 10 3 9 32 -3 38
-16 57 -30 59 -43 2 -13 33 -77 34 -68 0 12 80 -76 80 -88 0 -5 7 -3 15 4 8 7
15 18 15 26 0 7 5 25 12 39 11 24 15 26 72 23 57 -3 61 -4 58 -26 -5 -38 -42
-111 -60 -121 -16 -8 -75 -90 -127 -176 l-19 -30 -13 90 c-7 50 -15 104 -17
120 -8 64 -19 105 -26 105 -4 0 -15 -18 -24 -40 -12 -30 -20 -38 -32 -33 -13
5 -15 3 -9 -8 5 -8 0 -6 -12 4 -34 30 -85 142 -77 171 3 15 11 23 17 19 6 -4
8 0 4 10 -4 10 -10 24 -13 32 -8 20 6 19 23 -2z m-221 -78 c3 -19 3 -46 0 -60
-7 -26 -6 -26 23 -10 39 20 140 23 152 4 14 -23 11 -39 -7 -32 -14 5 -14 3 -3
-16 8 -11 17 -21 20 -21 9 0 31 -62 24 -68 -3 -3 -16 5 -29 17 -19 18 -24 19
-29 7 -3 -8 1 -17 9 -20 9 -3 12 -10 9 -16 -3 -6 1 -7 9 -4 9 3 16 2 17 -2 4
-42 8 -65 17 -102 8 -36 8 -41 -4 -31 -8 6 -14 20 -14 30 0 11 -5 19 -11 19
-6 0 -8 -7 -5 -16 3 -9 -23 5 -58 30 -36 25 -69 46 -75 46 -6 0 -11 3 -11 8 0
4 -18 7 -40 7 -44 0 -45 -2 -28 -42 21 -49 48 -72 77 -67 21 4 31 -2 51 -31
45 -64 58 -77 62 -63 3 7 11 -4 18 -24 14 -39 37 -55 25 -18 -10 31 5 24 16
-7 5 -16 24 -39 42 -51 l32 -24 -32 4 c-18 3 -30 1 -27 -3 21 -35 -83 10 -121
51 -11 12 -30 20 -49 19 -17 0 -25 -3 -18 -6 6 -2 10 -8 7 -13 -5 -9 -201 -5
-305 6 l-65 7 45 20 c56 25 136 29 215 11 32 -7 60 -12 61 -11 2 1 -19 20 -46
42 -27 22 -49 47 -50 55 0 12 -13 16 -60 15 -33 0 -60 4 -60 9 0 5 -9 1 -20
-9 -16 -14 -20 -15 -21 -4 -1 8 -3 21 -4 29 -1 8 -3 21 -4 28 0 6 -8 12 -16
12 -11 0 -12 5 -6 23 5 13 9 32 8 43 -1 10 5 19 13 19 15 0 62 47 185 180 33
35 63 65 67 65 4 0 10 -16 14 -35z m3574 -12 c0 -16 13 -18 147 -16 82 1 223
4 316 8 146 5 167 4 167 -10 0 -12 -18 -15 -107 -15 -158 0 -377 -12 -383 -20
-3 -4 -30 -13 -60 -20 -84 -21 -86 -33 -4 -25 41 4 74 3 77 -2 8 -12 158 -15
223 -5 28 5 59 5 70 2 32 -12 -150 -23 -280 -17 -67 3 -105 2 -86 -3 33 -7 32
-7 -17 -9 l-52 -1 -4 -92 -3 -93 -2 106 c-1 71 -6 110 -14 116 -7 6 -44 13
-82 17 -85 8 -104 17 -81 36 24 20 135 26 147 9 7 -10 8 -4 4 19 -4 24 -2 32
9 32 8 0 15 -8 15 -17z m-2805 -23 c5 -8 11 -8 20 0 11 9 17 6 29 -12 11 -17
15 -54 15 -142 0 -80 4 -121 11 -126 17 -10 -7 -24 -42 -25 -28 -1 -51 -14
-27 -16 8 -1 19 -2 24 -4 6 -1 16 -3 23 -3 6 -1 12 -6 12 -12 0 -15 -33 -12
-66 5 -16 8 -37 12 -47 9 -10 -3 -17 -2 -16 3 3 20 -6 18 -88 -23 -89 -44
-120 -46 -83 -6 25 26 42 29 33 5 -3 -10 4 -6 16 10 13 15 27 24 33 21 7 -4 8
-2 4 4 -4 7 -2 12 5 12 7 0 10 3 7 6 -4 3 -16 1 -27 -6 -12 -6 -21 -8 -21 -4
0 10 59 62 93 82 46 28 18 48 -38 27 -11 -4 -3 4 17 19 21 14 44 23 52 20 11
-4 16 -1 16 10 0 12 -6 15 -24 10 -13 -3 -27 -1 -30 5 -4 6 -18 11 -32 11 -27
0 -28 2 -14 44 5 17 12 43 15 59 5 26 8 27 65 27 32 0 62 -5 65 -10z m1358
-513 c-5 -33 -11 -40 -49 -57 -79 -36 -223 -16 -224 32 0 4 16 12 35 19 19 7
35 16 35 19 0 4 11 12 25 18 14 6 25 18 25 26 0 8 8 20 18 25 14 9 14 10 1 11
-12 0 -14 8 -10 42 3 23 12 43 20 46 14 5 12 -18 -5 -61 -3 -9 2 -16 15 -20
14 -3 18 -1 14 9 -7 18 21 18 39 0 12 -11 14 -8 15 22 1 22 8 41 20 49 17 13
18 10 24 -64 4 -43 4 -95 2 -116z m771 121 c4 -24 9 -52 12 -63 5 -19 0 -20
-71 -19 -41 1 -77 3 -79 5 -8 7 -23 108 -18 114 3 3 38 5 77 5 l72 0 7 -42z
m-267 17 c25 -17 37 -19 29 -6 -3 5 4 11 16 14 28 8 38 -8 37 -53 -1 -19 -3
-27 -6 -17 -4 14 -8 16 -19 6 -17 -14 -9 -29 17 -29 10 0 19 -3 19 -7 0 -5
-38 -9 -85 -11 -56 -2 -85 0 -85 7 0 6 -10 10 -22 10 -17 -1 -19 -2 -5 -6 9
-2 17 -8 17 -13 0 -10 -4 -11 -125 -15 -49 -2 -114 -8 -143 -13 l-53 -9 3 65
c1 35 7 66 13 68 8 3 128 11 330 21 22 1 50 -4 62 -12z m-1752 -17 c-4 -13
-17 -36 -29 -53 -13 -16 -26 -38 -29 -48 -6 -15 -2 -18 21 -17 77 5 100 -13
66 -52 -27 -29 -124 -70 -151 -63 -33 8 -28 22 11 35 19 6 40 17 46 25 6 8 17
12 25 9 7 -3 16 -1 19 4 13 21 -29 22 -56 2 -15 -11 -29 -20 -32 -20 -9 0 6
34 23 54 15 18 14 19 -24 12 -22 -4 -71 -21 -109 -37 -78 -32 -79 -33 24 48
41 32 93 64 116 71 22 6 49 21 59 32 23 26 28 25 20 -2z m786 -53 c12 -25 28
-45 36 -45 7 0 13 -6 13 -13 0 -7 -9 -13 -19 -13 -11 0 -18 3 -16 6 4 6 -185
3 -206 -4 -36 -12 -77 -12 -72 0 6 17 104 98 101 84 -2 -7 4 -15 12 -17 10 -3
11 -2 3 4 -20 14 0 31 42 36 86 8 82 10 106 -38z m-377 9 c3 -8 10 -12 16 -9
6 4 7 -1 4 -10 -6 -13 -1 -16 22 -13 24 2 28 7 26 28 -3 20 -1 23 9 13 10 -10
16 -10 27 0 33 27 -11 -28 -49 -61 -34 -30 -42 -33 -108 -33 -68 -1 -99 -13
-67 -25 22 -8 20 -41 -1 -48 -10 -3 -40 -7 -68 -10 -40 -4 -43 -4 -17 3 41 11
49 18 34 33 -7 7 -12 8 -12 2 0 -6 -13 -9 -29 -6 -40 6 -36 37 5 38 20 1 44
16 79 49 47 44 50 46 53 23 6 -47 12 -55 28 -34 12 17 12 23 -1 42 -11 17 -12
24 -2 27 24 10 45 7 51 -9z m834 -232 c-1 -46 -8 -80 -16 -88 -20 -21 -34 -17
-22 5 14 27 13 31 -7 31 -16 0 -16 -2 -3 -11 11 -8 6 -9 -23 -5 -22 3 -35 1
-32 -5 9 -14 -5 -11 -21 5 -8 8 -23 13 -34 11 -13 -2 -20 2 -20 11 0 8 -6 14
-13 14 -8 0 -22 9 -31 19 -17 19 -17 20 11 23 20 2 28 8 28 23 0 13 8 21 23
23 15 2 22 -2 22 -12 0 -9 4 -16 9 -16 5 0 7 10 3 22 -3 13 -1 19 5 15 6 -4
25 -1 43 7 17 7 43 11 56 8 25 -4 25 -7 22 -80z m816 47 c4 -23 5 -44 2 -46
-2 -2 -27 -5 -55 -5 l-51 -1 22 -24 c43 -45 -3 -22 -52 27 -47 47 -53 50 -102
50 -48 0 -50 -1 -36 -17 35 -42 27 -63 -24 -63 -13 0 -18 -5 -15 -13 4 -10
-11 -8 -56 7 l-62 19 34 14 c30 13 32 15 16 27 -19 13 -61 10 -71 -6 -3 -5
-12 -4 -20 3 -8 6 -18 9 -21 5 -4 -4 -1 -11 7 -16 12 -8 10 -10 -7 -10 -25 0
-30 -19 -11 -38 10 -10 10 -15 -1 -21 -15 -10 -51 -3 -51 10 0 5 -7 9 -16 9
-14 0 -14 -3 -4 -15 7 -8 9 -15 5 -15 -4 0 -16 11 -27 25 -23 29 -77 34 -102
9 -15 -14 -16 -10 -16 39 0 48 3 55 23 61 36 9 117 7 117 -4 0 -5 5 -10 11
-10 5 0 8 4 5 9 -8 12 62 19 74 7 7 -7 14 -6 22 2 13 13 68 17 68 4 0 -4 16
-8 35 -8 19 0 35 3 35 8 0 7 73 12 231 16 l86 2 7 -41z m-3151 -56 c-2 -6 6
-15 17 -18 42 -13 17 -25 -52 -25 -69 0 -108 -15 -108 -42 0 -8 -141 -187
-177 -226 -11 -11 -13 -11 -13 2 0 20 26 119 37 142 5 11 17 34 26 52 15 31
15 32 -4 32 -12 0 -23 -10 -29 -26 -9 -22 -14 -25 -38 -19 -15 4 -29 8 -31 10
-2 2 2 26 9 54 9 37 18 52 33 57 22 7 258 22 307 20 14 0 24 -6 23 -13z m712
-182 c-5 -17 1 -20 72 -25 119 -10 127 -14 131 -64 2 -24 -5 -68 -14 -100 -10
-31 -18 -59 -18 -62 -1 -3 -5 -11 -9 -17 -5 -9 -3 -13 7 -13 9 0 16 7 16 15 0
8 9 15 20 15 22 0 23 -3 14 -37 -5 -19 -13 -23 -48 -23 -31 0 -53 -9 -89 -34
-54 -38 -92 -46 -228 -48 -86 -1 -100 2 -145 27 -92 51 -123 82 -140 140 -8
30 -14 74 -12 97 3 40 5 44 43 56 45 15 153 29 144 18 -4 -4 -16 -8 -28 -11
-11 -2 -26 -7 -33 -11 -7 -4 -26 -8 -42 -9 -16 -1 -31 -6 -33 -12 -9 -27 369
-21 444 8 13 5 33 9 43 9 10 0 31 5 47 11 43 16 10 29 -79 29 l-78 0 0 30 c0
17 5 30 11 30 6 0 8 -8 4 -19z"/>
<path d="M6567 3734 c-3 -3 -23 -6 -44 -6 -32 0 -34 -2 -15 -9 40 -15 16 -38
-31 -30 -5 1 -6 -3 -3 -7 3 -5 23 -7 45 -5 22 3 42 0 46 -6 4 -7 -5 -11 -25
-11 -18 0 -33 -6 -36 -15 -4 -8 -12 -15 -19 -15 -7 0 -18 -6 -24 -14 -9 -11
10 -13 114 -14 l125 -2 0 32 c0 23 -3 29 -11 21 -8 -8 -20 -8 -41 -1 -24 8
-32 8 -39 -3 -7 -11 -9 -10 -9 5 0 16 6 18 41 13 45 -6 56 5 45 48 -6 23 -11
25 -60 25 -29 0 -55 -3 -59 -6z"/>
<path d="M6564 3581 c-2 -3 -27 -4 -54 -2 -42 2 -49 0 -49 -16 1 -10 -1 -35
-4 -55 -4 -30 -1 -38 12 -39 12 0 11 -2 -4 -8 -16 -7 -13 -9 18 -15 20 -4 42
-4 48 -1 5 4 15 -7 22 -24 6 -17 17 -31 24 -31 7 0 13 -4 13 -10 0 -5 9 -10
20 -10 11 0 20 -4 20 -10 0 -14 -40 -6 -51 11 -14 22 -11 10 20 -75 17 -47 31
-74 35 -67 5 7 19 10 35 6 28 -6 28 -5 35 56 10 105 7 217 -6 222 -10 4 -10 6
0 6 13 1 18 61 5 62 -49 3 -136 3 -139 0z"/>
<path d="M4680 3076 c0 -25 -10 -41 -30 -49 -13 -5 -13 -6 0 -6 11 -1 20 -22
30 -68 l15 -68 174 -3 c110 -1 178 1 185 8 7 7 1 10 -19 10 -19 0 -43 11 -65
30 -19 16 -41 30 -47 30 -7 0 -13 4 -13 9 0 5 -6 9 -12 8 -34 -1 -48 4 -48 19
0 8 -4 12 -10 9 -5 -3 -10 1 -10 9 0 8 -9 18 -20 21 -11 3 -20 10 -20 15 0 10
-69 44 -92 46 -12 1 -18 -6 -18 -20z"/>
<path d="M4420 3022 c0 -5 -15 -16 -32 -26 -62 -32 -129 -77 -156 -103 -7 -7
-21 -13 -30 -13 -15 -1 -15 -2 -2 -10 19 -10 437 -15 463 -5 20 9 23 25 3 25
-12 0 -30 27 -26 39 1 2 -5 8 -14 13 -9 5 -16 15 -16 22 0 17 -36 35 -80 40
-19 3 -48 9 -63 15 -34 13 -47 14 -47 3z"/>
<path d="M4480 933 c-49 -3 -147 -12 -480 -43 -118 -11 -296 -26 -395 -35 -99
-8 -270 -24 -380 -35 -199 -20 -466 -43 -915 -80 -321 -26 -574 -48 -700 -60
-58 -6 -163 -15 -235 -20 -71 -5 -209 -16 -305 -24 -187 -16 -354 -28 -383
-28 -13 1 -15 -3 -8 -16 13 -23 208 -215 248 -244 17 -13 57 -43 87 -66 30
-24 99 -68 153 -98 l98 -54 11 32 c7 22 17 32 35 34 13 2 83 10 154 18 72 9
238 27 370 41 132 14 344 36 470 50 393 42 809 83 1065 105 135 11 265 25 289
30 60 14 492 231 737 370 110 62 203 117 209 121 9 9 -28 9 -125 2z"/>
</g>
</svg>
