<?xml version="1.0" encoding="iso-8859-1"?>
<!-- Generator: Adobe Illustrator 19.0.0, SVG Export Plug-In . SVG Version: 6.00 Build 0)  -->
<svg version="1.1" id="Capa_1" xmlns="http://www.w3.org/2000/svg" xmlns:xlink="http://www.w3.org/1999/xlink" x="0px" y="0px"
	 viewBox="0 0 512.033 512.033" style="enable-background:new 0 0 512.033 512.033;" xml:space="preserve">
<g>
	<path style="fill:#FFFFFF;" d="M501.333,117.35v117.333c0.067-76.583-61.961-138.721-138.545-138.789
		C286.205,95.827,224.068,157.855,224,234.439c-0.042,47.765,24.502,92.189,64.96,117.577h-75.627L128,437.35v-85.333H53.333
		c-23.564,0-42.667-19.103-42.667-42.667v-256c0-23.564,19.103-42.667,42.667-42.667h405.333c23.564,0,42.667,19.103,42.667,42.667
		V117.35z"/>
	<path style="fill:#FFFFFF;" d="M341.333,469.35H384v32h-42.667V469.35z"/>
	<path style="fill:#FFFFFF;" d="M416,426.683v42.667h-32h-42.667h-32v-42.667H416z"/>
</g>
<path style="fill:#87D2F3;" d="M501.333,234.683c0.017,55.985-33.648,106.483-85.333,128v64H309.333v-64
	c-7.099-2.934-13.917-6.505-20.373-10.667c-64.869-40.707-84.456-126.293-43.749-191.162s126.293-84.456,191.162-43.749
	C476.832,142.494,501.375,186.918,501.333,234.683z"/>
<g>
	<path style="fill:#2170A6;" d="M458.667,0.016H53.333C23.893,0.052,0.035,23.909,0,53.35v256
		c0.035,29.441,23.893,53.298,53.333,53.333h64v74.667c-0.001,4.314,2.596,8.204,6.581,9.856c1.294,0.54,2.683,0.815,4.085,0.811
		c2.829-0.001,5.541-1.125,7.541-3.125l82.208-82.208h16.917V341.35h-21.333c-2.829,0.001-5.541,1.125-7.541,3.125L138.667,411.6
		v-59.584c0-5.891-4.776-10.667-10.667-10.667H53.333c-17.673,0-32-14.327-32-32l0,0v-256c0-17.673,14.327-32,32-32h405.333
		c17.673,0,32,14.327,32,32v64H512v-64C511.965,23.909,488.107,0.052,458.667,0.016z"/>
	<path style="fill:#2170A6;" d="M362.667,85.35c-82.427-0.054-149.292,66.722-149.346,149.149
		c-0.034,51.364,26.347,99.137,69.837,126.467c4.974,3.216,10.155,6.098,15.509,8.629v25.088H320v-32
		c0.002-4.302-2.581-8.185-6.549-9.845c-6.565-2.712-12.87-6.014-18.837-9.867c-59.759-37.655-77.679-116.625-40.024-176.385
		s116.625-77.679,176.385-40.024s77.679,116.625,40.024,176.385c-14.066,22.323-34.692,39.75-59.051,49.89
		c-3.994,1.641-6.605,5.528-6.613,9.845v32h21.333v-25.077c74.516-35.348,106.268-124.409,70.92-198.925
		C472.867,118.568,420.345,85.351,362.667,85.35L362.667,85.35z"/>
	<path style="fill:#2170A6;" d="M277.333,437.35h21.333v32c0,5.891,4.776,10.667,10.667,10.667h21.333v21.333
		c0,5.891,4.776,10.667,10.667,10.667H384c5.891,0,10.667-4.776,10.667-10.667v-21.333H416c5.891,0,10.667-4.776,10.667-10.667v-32
		H448v-21.333H277.333V437.35z M373.333,490.683H352v-10.667h21.333V490.683z M405.333,458.683H320V437.35h85.333V458.683z"/>
	<path style="fill:#2170A6;" d="M320,192.016c5.891,0,10.667,4.776,10.667,10.667H352c0-17.673-14.327-32-32-32
		c-17.673,0-32,14.327-32,32s14.327,32,32,32h32v160h21.333v-160h32c17.673,0,32-14.327,32-32s-14.327-32-32-32s-32,14.327-32,32
		h21.333c0-5.891,4.776-10.667,10.667-10.667S416,196.792,416,202.683c0,5.891-4.776,10.667-10.667,10.667H320
		c-5.891,0-10.667-4.776-10.667-10.667C309.333,196.792,314.109,192.016,320,192.016z"/>
	<path style="fill:#2170A6;" d="M64,64.016h21.333V85.35H64V64.016z"/>
	<path style="fill:#2170A6;" d="M106.667,64.016H128V85.35h-21.333V64.016z"/>
	<path style="fill:#2170A6;" d="M64,117.35h149.333v21.333H64V117.35z"/>
	<path style="fill:#2170A6;" d="M64,170.683h117.333v21.333H64V170.683z"/>
	<path style="fill:#2170A6;" d="M64,224.016h96v21.333H64V224.016z"/>
	<path style="fill:#2170A6;" d="M64,277.35h128v21.333H64V277.35z"/>
</g>
<g>
</g>
<g>
</g>
<g>
</g>
<g>
</g>
<g>
</g>
<g>
</g>
<g>
</g>
<g>
</g>
<g>
</g>
<g>
</g>
<g>
</g>
<g>
</g>
<g>
</g>
<g>
</g>
<g>
</g>
</svg>
