<svg height="512pt" viewBox="-1 0 512 512" width="512pt" xmlns="http://www.w3.org/2000/svg"><path d="m477.34375 170.453125c-8.859375-7.351563-13.515625-18.632813-12.445312-30.144531 2.433593-26.21875-6.738282-51.839844-25.128907-70.289063-18.390625-18.441406-43.929687-27.5-70.085937-25.199219-11.59375 1.070313-22.746094-3.585937-30.066406-12.472656-16.96875-20.554687-41.90625-32.347656-68.414063-32.347656h-.222656c-26.429688.0703125-51.277344 11.851562-68.195313 32.347656-7.320312 8.917969-18.511718 13.605469-30.0625 12.472656-26.230468-2.363281-51.679687 6.757813-70.089844 25.199219-18.390624 18.449219-27.5625 44.070313-25.128906 70.289063 1.070313 11.523437-3.5625 22.792968-12.445312 30.144531-20.5 17.007813-32.253906 42.015625-32.253906 68.605469 0 26.578125 11.753906 51.585937 32.253906 68.605468 8.863281 7.351563 13.515625 18.632813 12.445312 30.144532-2.433594 26.21875 6.738282 51.839844 25.128906 70.28125 18.410157 18.480468 44.070313 27.75 70.078126 25.1875 11.5625-1.113282 22.726562 3.59375 30.074218 12.492187 16.917969 20.492188 41.765625 32.277344 68.195313 32.347657h.222656c26.507813 0 51.445313-11.792969 68.414063-32.347657 7.347656-8.898437 18.421874-13.554687 30.066406-12.492187 25.988281 2.230468 51.6875-6.738282 70.085937-25.1875 18.390625-18.441406 27.5625-44.0625 25.128907-70.28125-1.070313-11.523438 3.566406-22.792969 12.445312-30.144532 20.503906-17.019531 32.90625-42.027343 32.90625-68.605468 0-26.589844-12.402344-51.597656-32.90625-68.605469zm0 0" fill="#ffd400"/><path d="m44.699219 512c-24.648438 0-44.699219-20.105469-44.699219-44.824219 0-24.714843 20.050781-44.824219 44.699219-44.824219 24.652343 0 44.703125 20.109376 44.703125 44.824219-.003906 24.71875-20.054688 44.824219-44.703125 44.824219zm0 0" fill="#ffd400"/><path d="m510.25 239.058594c0 26.578125-12.402344 51.585937-32.90625 68.605468-8.878906 7.351563-13.515625 18.621094-12.445312 30.144532 2.433593 26.21875-6.738282 51.839844-25.128907 70.28125-18.398437 18.449218-44.097656 27.417968-70.085937 25.1875-11.644532-1.0625-22.71875 3.59375-30.066406 12.492187-16.96875 20.554688-41.90625 32.347657-68.414063 32.347657h-.222656v-478.117188h.222656c26.507813 0 51.445313 11.792969 68.414063 32.347656 7.320312 8.886719 18.472656 13.542969 30.066406 12.472656 26.15625-2.300781 51.695312 6.757813 70.085937 25.199219 18.390625 18.449219 27.5625 44.070313 25.128907 70.289063-1.070313 11.511718 3.585937 22.792968 12.445312 30.144531 20.503906 17.007813 32.90625 42.015625 32.90625 68.605469zm0 0" fill="#fdbf00"/><g fill="#60508e"><path d="m151.847656 220.738281h238.265625v30.035157h-238.265625zm0 0"/><path d="m151.847656 280.804688h179.199219v30.035156h-179.199219zm0 0"/><path d="m151.847656 161.671875h238.265625v30.035156h-238.265625zm0 0"/></g><path d="m270.980469 280.804688h60.066406v30.035156h-60.066406zm0 0" fill="#2d0057"/><path d="m270.980469 220.738281h119.132812v30.035157h-119.132812zm0 0" fill="#2d0057"/><path d="m270.980469 161.671875h119.132812v30.035156h-119.132812zm0 0" fill="#2d0057"/></svg>