<?xml version="1.0" encoding="utf-8"?>
<!-- Generator: Adobe Illustrator 17.0.0, SVG Export Plug-In . SVG Version: 6.00 Build 0)  -->
<!DOCTYPE svg PUBLIC "-//W3C//DTD SVG 1.1//EN" "http://www.w3.org/Graphics/SVG/1.1/DTD/svg11.dtd">
<svg version="1.1" id="Layer_1" xmlns="http://www.w3.org/2000/svg" xmlns:xlink="http://www.w3.org/1999/xlink" x="0px" y="0px"
	 width="155px" height="76px" viewBox="1930.3 0 155 76" style="enable-background:new 1930.3 0 155 76;" xml:space="preserve">
<style type="text/css">
	.st0{fill:#0089CF;}
</style>
<g id="Layer_2">
</g>
<g>
	<path class="st0" d="M1984,31.9c-0.4-2.1-1.3-4-2.8-5.5c-1.5-1.5-3.5-2.5-5.6-2.8c-2.3-0.4-4.7-0.2-6.9,0.5c0-2.3,0-4.6,0-6.9
		c-2.3,0-4.6,0-6.9,0c0,6.1,0,12.2,0,18.2c0,0.9,0.2,1.9,0.4,2.7c0.5,2.1,1.7,4,3.4,5.3c1.7,1.4,3.8,2.1,6,2.3
		c1.8,0.2,3.6,0,5.4-0.6c1.9-0.6,3.6-1.7,4.9-3.3c1.1-1.4,1.9-3.1,2.2-4.8C1984.2,35.5,1984.3,33.7,1984,31.9z M1977.2,34.8
		c0,1.5-0.3,3-1,4.3c-0.5,0.9-1.4,1.6-2.4,1.9c-1,0.2-2.1,0.1-2.9-0.5c-0.9-0.6-1.5-1.5-1.8-2.5c-0.5-1.4-0.6-3-0.5-4.5
		c0.1-1.4,0.5-2.8,1.3-3.9c0.6-0.8,1.5-1.3,2.5-1.4c0.8-0.1,1.7,0,2.5,0.5c0.8,0.5,1.3,1.3,1.7,2.2
		C1977.1,32.1,1977.3,33.5,1977.2,34.8z"/>
	<path class="st0" d="M2006.8,17.2c2.2,0,4.5,0,6.7,0c0,5.2,0,10.3,0,15.5c0.1-0.1,0.2-0.2,0.3-0.3c1.9-2.8,3.7-5.6,5.6-8.5
		c2.9,0,5.8,0,8.7,0c-2.8,3.4-5.7,6.7-8.5,10.1c-0.1,0.1-0.1,0.1,0,0.2c3.1,3.7,6.3,7.4,9.4,11.2c-2.8,0-5.7,0-8.5,0
		c-0.1,0-0.1,0-0.2-0.1c-2.3-3.3-4.5-6.6-6.8-9.9c0,3.3,0,6.6,0,9.9c-0.9,0-1.9,0-2.8,0c-1.3,0-2.6,0-3.9,0
		C2006.8,36,2006.8,26.6,2006.8,17.2L2006.8,17.2z"/>
	<path class="st0" d="M2005.4,36.8c0.4-2.7,0.3-5.5-0.8-8c-0.5-1.1-1.1-2.1-2-2.9c-0.9-0.9-2-1.5-3.2-1.9c-1.4-0.5-3-0.6-4.5-0.5
		c-1.8,0.1-3.6,0.7-5.1,1.8c-1.6,1.1-2.8,2.7-3.6,4.6c-0.7,1.6-1,3.4-1,5.2c0,1.8,0.3,3.6,1.1,5.2c0.6,1.2,1.3,2.2,2.3,3.1
		c0.9,0.8,1.9,1.4,3.1,1.8c1.5,0.6,3.2,0.8,4.8,0.8c2.7,0,5.5-0.3,8-1.3c-0.3-1.5-0.6-3-0.9-4.5c-2.2,0.7-4.4,1-6.7,0.9
		c-1.4-0.1-2.9-0.5-4-1.5c-0.7-0.6-1.2-1.6-1.3-2.6C1996.2,36.8,2000.8,36.8,2005.4,36.8z M1991.5,32.2c0.1-1.3,0.6-2.6,1.6-3.4
		c0.7-0.6,1.7-1,2.6-0.9c1,0,1.9,0.4,2.6,1.1c0.8,0.9,1.1,2.1,1.1,3.2C1996.8,32.2,1994.1,32.2,1991.5,32.2z"/>
	<path class="st0" d="M2048.7,33c-0.2-1.7-0.7-3.3-1.5-4.7c-1.2-1.9-3-3.4-5.1-4.2c-1.7-0.6-3.6-0.8-5.4-0.7
		c-0.7,0.1-1.5,0.2-2.2,0.3c-1.9,0.4-3.8,1.4-5.2,2.8c-1.5,1.5-2.5,3.6-2.9,5.7c-0.4,2.6-0.2,5.4,0.9,7.8c0.8,1.6,2,3,3.5,4
		c1.6,1,3.4,1.6,5.2,1.8c1.8,0.2,3.6,0,5.3-0.6c2.3-0.7,4.3-2.2,5.6-4.2C2048.5,38.7,2048.9,35.7,2048.7,33z M2041.8,36
		c-0.2,1.2-0.5,2.5-1.2,3.5c-0.5,0.8-1.4,1.3-2.3,1.5c-0.8,0.1-1.7,0-2.5-0.4c-0.8-0.4-1.4-1.2-1.8-2c-0.5-1-0.7-2-0.8-3.1
		c-0.1-1.3,0-2.6,0.3-3.9c0.3-1,0.7-1.9,1.5-2.6c0.6-0.5,1.3-0.9,2.1-0.9c0.9-0.1,1.8,0.1,2.5,0.6c0.8,0.6,1.4,1.4,1.7,2.4
		C2041.8,32.7,2041.9,34.3,2041.8,36z"/>
	<path class="st0" d="M1981.5,57.1c21.5-3,43.1-6,64.6-9.1c0,2.3,0,4.5,0,6.8c-6.1,0.8-12.3,1.7-18.4,2.6c-22,3.1-44,6.2-66,9.3
		c0-2.2,0-4.5,0-6.7C1968.3,59,1974.9,58.1,1981.5,57.1L1981.5,57.1z"/>
</g>
</svg>
