<?xml version="1.0" encoding="utf-8"?>
<!-- Generator: Adobe Illustrator 17.0.0, SVG Export Plug-In . SVG Version: 6.00 Build 0)  -->
<!DOCTYPE svg PUBLIC "-//W3C//DTD SVG 1.1//EN" "http://www.w3.org/Graphics/SVG/1.1/DTD/svg11.dtd">
<svg version="1.1" id="Layer_1" xmlns="http://www.w3.org/2000/svg" xmlns:xlink="http://www.w3.org/1999/xlink" x="0px" y="0px"
	 width="155px" height="76px" viewBox="-353 0 155 76" style="enable-background:new -353 0 155 76;" xml:space="preserve">
<style type="text/css">
	.st0{fill:#231815;}
	.st1{fill:#EF8200;}
	.st2{fill:#FFFFFF;}
</style>
<g id="Layer_2">
</g>
<g>
	<path class="st0" d="M-299,28.7h9.7c3.9,0,7.2,2.5,7.2,6.4v12.8h-4.1V35.4c-0.1-1.5-1.4-2.6-2.8-2.7h-5.7v15.1l0,0h-4.1V28.7H-299z
		 M-306.7,28.7h4.1v19.2h-4.1V28.7L-306.7,28.7z M-278.2,28.7h8.4c4.2,0,8.4,3.5,8.4,9.6s-4.1,9.6-8.4,9.6h-8.4v-9.6V28.7
		L-278.2,28.7z M-274.2,32.9h4.3c3,0.2,4,3.2,4,5.8c-0.1,2.3-1.2,4.7-3.8,5c-1.5,0.1-3.1,0-4.5,0V32.9L-274.2,32.9z M-243.7,47.8
		c-1.4,0.4-3.3,0.7-5.7,0.7c-4.6,0-9.9-1.7-9.9-10.3c0-5.3,3.2-9.7,8.7-9.7c5.8,0,8.1,2.7,8.1,9.4v2.2h-12.3c0,2.6,2,4.7,6.5,4.7
		c1.9,0,3.5-0.4,4.6-1.1V47.8L-243.7,47.8z M-246.7,36.8C-246.7,36.8-246.7,36.7-246.7,36.8c0-2.6-1-4.6-4.2-4.6s-4.2,2-4.2,4.5l0,0
		h8.4V36.8z M-218.2,28.7h-4.1v19.2h4.1V28.7L-218.2,28.7z M-201.7,28.7h-14.2v3.9h5v15.3h4.1V32.6h5v-3.9H-201.7z M-232.9,32.1
		c2-0.2,4.2,0.1,6.2,0.9v-3.7c-1.8-0.5-3.8-0.7-5.7-0.7c-4.9-0.2-7.6,1.9-7.7,6.2c-0.1,3,1.5,5.3,6.2,5.6c2.9,0.2,4.2,1,4.2,2.3
		c-0.1,1.4-1.7,1.9-3.5,2c-2.7,0.2-4.9-0.4-6.8-1.2v4.2c2,0.5,4.3,0.8,6.9,0.7c4.7,0,7.6-1.8,7.7-5.9c0.1-3.3-2.6-5.7-6-5.8
		c-3.2-0.1-4.4-0.8-4.4-2.1C-235.8,33.3-234.5,32.2-232.9,32.1L-232.9,32.1z"/>
	<path class="st1" d="M-332.1,24.3c1.2,0,2.2-1,2.2-2.2c0-1.2-1-2.2-2.2-2.2s-2.2,1-2.2,2.2C-334.3,23.3-333.3,24.3-332.1,24.3
		L-332.1,24.3z M-330.6,29.9V46c0,2-2.9,2-2.9,0V29.9C-333.5,27.8-330.6,27.8-330.6,29.9L-330.6,29.9z"/>
	<path class="st0" d="M-338.9,25.3c-2,1.2-3.8,3-5,5s-1.8,4.4-1.8,6.8c0,7.6,6.1,13.7,13.7,13.7s13.7-6.1,13.7-13.7
		c0-2.5-0.7-4.8-1.8-6.8c-1.2-2-2.9-3.8-5-5c-1.8-1-0.3-3.6,1.4-2.6c2.6,1.4,4.6,3.6,6,6.1c1.4,2.5,2.2,5.3,2.2,8.3
		c0,9.1-7.5,16.5-16.5,16.5s-16.5-7.5-16.5-16.5c0-3,0.8-5.8,2.2-8.3c1.4-2.5,3.5-4.6,6-6.1C-338.6,21.7-337.1,24.2-338.9,25.3
		L-338.9,25.3z"/>
	<path class="st2" d="M-274.2,32.9h4.3c3,0.2,4,3.2,4,5.8c-0.1,2.3-1.2,4.7-3.8,5c-1.5,0.1-3.1,0-4.5,0V32.9L-274.2,32.9z"/>
</g>
</svg>
