<?xml version="1.0" encoding="utf-8"?>
<!-- Generator: Adobe Illustrator 17.0.0, SVG Export Plug-In . SVG Version: 6.00 Build 0)  -->
<!DOCTYPE svg PUBLIC "-//W3C//DTD SVG 1.1//EN" "http://www.w3.org/Graphics/SVG/1.1/DTD/svg11.dtd">
<svg version="1.1" id="Layer_1" xmlns="http://www.w3.org/2000/svg" xmlns:xlink="http://www.w3.org/1999/xlink" x="0px" y="0px"
	 width="155px" height="76px" viewBox="525 0 155 76" style="enable-background:new 525 0 155 76;" xml:space="preserve">
<style type="text/css">
	.st0{fill:#5D6770;}
	.st1{clip-path:url(#SVGID_2_);fill:url(#SVGID_3_);}
	.st2{clip-path:url(#SVGID_5_);fill:url(#SVGID_6_);}
	.st3{clip-path:url(#SVGID_8_);fill:url(#SVGID_9_);}
	.st4{fill:#616D73;}
	.st5{fill:#8C9DA4;}
	.st6{fill:#95A1A4;}
	.st7{clip-path:url(#SVGID_11_);fill:url(#SVGID_12_);}
	.st8{clip-path:url(#SVGID_14_);fill:url(#SVGID_15_);}
	.st9{fill:#BAC1C3;}
	.st10{clip-path:url(#SVGID_17_);fill:url(#SVGID_18_);}
	.st11{fill:#4C565C;}
	.st12{clip-path:url(#SVGID_20_);fill:url(#SVGID_21_);}
	.st13{clip-path:url(#SVGID_23_);fill:url(#SVGID_24_);}
	.st14{clip-path:url(#SVGID_26_);fill:url(#SVGID_27_);}
	.st15{clip-path:url(#SVGID_29_);fill:url(#SVGID_30_);}
	.st16{clip-path:url(#SVGID_32_);fill:url(#SVGID_33_);}
	.st17{fill:#FFFFFF;}
</style>
<g>
	<path class="st0" d="M607.4,55.9h1.4v1.2h-1.4V55.9z M607.4,58.5h1.4v6.2h-1.4V58.5z"/>
	<path class="st0" d="M614.3,58.5v1.1h-2.1v5.1h-1.4v-5.1h-0.9v-1.1h0.9v-0.7c0-1.8,1-2.4,2.5-2.4c0.5,0,1.1,0.1,1.4,0.2l-0.3,1
		c-0.3-0.1-0.7-0.2-1-0.2c-0.9,0-1.2,0.4-1.2,1.4v0.7L614.3,58.5L614.3,58.5z"/>
	<path class="st0" d="M614.7,61.6c0-2.1,1-3.2,3-3.2c2.1,0,2.6,1.3,2.6,3.1V62h-4.1c0,1.3,0.6,1.9,1.7,1.9c0.9,0,1.5-0.3,2-0.5
		l0.3,0.9c-0.5,0.3-1.6,0.7-2.5,0.7C615.5,64.9,614.7,63.7,614.7,61.6 M616.1,61h2.7c0-1.2-0.4-1.7-1.2-1.7
		C616.6,59.2,616.2,59.8,616.1,61"/>
	<path class="st0" d="M620.5,58.3c0.6-1,0.7-1.8,0.7-2.9h1.3c0,1.6-0.4,2.5-1.2,3.5L620.5,58.3z"/>
	<path class="st0" d="M626.2,61.3c0.7,0.2,1.4,0.7,1.4,1.7c0,1.2-1,1.9-2.6,1.9c-1,0-1.7-0.2-2.3-0.4l0.4-1c0.5,0.2,1.2,0.4,1.9,0.4
		s1.3-0.2,1.3-0.7c0-0.3-0.2-0.6-0.7-0.7c-0.5-0.2-1.1-0.3-1.5-0.5c-0.7-0.3-1.3-0.7-1.3-1.7c0-1.3,1.2-1.8,2.6-1.8
		c1,0,1.7,0.2,2.3,0.4l-0.4,1c-0.5-0.2-1.2-0.4-1.8-0.4c-0.9,0-1.2,0.3-1.2,0.7c0,0.3,0.2,0.5,0.7,0.7
		C625.1,60.9,625.8,61.1,626.2,61.3"/>
	<path class="st0" d="M639.5,64.2c-0.7,0.4-1.9,0.6-3.2,0.6c-2.9,0-4.1-1.7-4.1-4.6c0-3.1,1.7-4.6,4.3-4.6c1.2,0,2.4,0.4,3.1,1.2
		l-0.9,0.7c-0.5-0.5-1.2-0.9-2.2-0.9c-1.9,0-2.8,1.3-2.8,3.6c0,2.1,0.9,3.3,2.8,3.3c0.7,0,1.2-0.1,1.7-0.2V61H636v-1.1h3.5V64.2z"/>
	<polygon class="st0" points="606.5,63.5 606.5,64.7 601.2,64.7 601.2,55.8 602.6,55.8 602.6,63.5 	"/>
	<path class="st0" d="M640.5,61.6c0-2.1,1-3.2,3.1-3.2c2.2,0,2.9,1.2,2.9,3.3c0,2.1-1,3.2-3.2,3.2C641.2,64.9,640.5,63.6,640.5,61.6
		 M645.1,61.5c0-1.2-0.2-2.2-1.5-2.2c-1.3,0-1.7,0.8-1.7,2.3c0,1.2,0.3,2.2,1.5,2.2C644.7,63.9,645.1,63,645.1,61.5"/>
	<path class="st0" d="M647.4,61.6c0-2.1,1-3.2,3.1-3.2c2.2,0,2.9,1.2,2.9,3.3c0,2.1-1,3.2-3.1,3.2C648.1,64.9,647.4,63.6,647.4,61.6
		 M652.1,61.5c0-1.2-0.2-2.2-1.5-2.2c-1.3,0-1.7,0.8-1.7,2.3c0,1.2,0.3,2.2,1.5,2.2C651.7,63.9,652.1,63,652.1,61.5"/>
	<path class="st0" d="M654.4,61.7c0-2,0.8-3.4,3-3.4c0.5,0,0.8,0.1,1.2,0.2v-3.1l1.4-0.2V63l0.1,1.7h-1.2l-0.1-0.4
		c-0.6,0.4-1.2,0.6-1.8,0.6C655.1,64.9,654.4,63.6,654.4,61.7 M658.6,63.4v-3.7c-0.3-0.2-0.7-0.3-1.1-0.3c-1.1,0-1.7,0.6-1.7,2.3
		c0,1.3,0.4,2.1,1.6,2.1C657.9,63.8,658.2,63.7,658.6,63.4"/>
	<polygon class="st0" points="608.3,16.3 601.3,16.3 601.3,46.9 622.9,46.9 622.9,40.9 608.3,40.9 	"/>
	<path class="st0" d="M638.4,35.2h5.8v5.3c-1.1,0.4-3.1,0.8-5.1,0.8c-6.4,0-8.5-3.2-8.5-9.7c0-6.3,2.1-9.9,8.3-9.9
		c3.6,0,5.5,1.1,7.2,3.2l4.4-4c-2.6-3.8-7.4-5-11.7-5c-9.8,0-15,5.4-15,15.7c0,10.2,4.7,15.8,15,15.8c4.7,0,9.3-1.2,11.9-3V29.5
		h-12.2V35.2L638.4,35.2z"/>
	<g>
		<g>
			<g>
				<defs>
					<path id="SVGID_1_" d="M543.4,31.7c0,13.1,10.6,23.6,23.6,23.6c13,0,23.5-10.5,23.6-23.5v-0.4c-0.1-13-10.7-23.5-23.6-23.5
						C554,8.1,543.4,18.6,543.4,31.7"/>
				</defs>
				<clipPath id="SVGID_2_">
					<use xlink:href="#SVGID_1_"  style="overflow:visible;"/>
				</clipPath>
				
					<radialGradient id="SVGID_3_" cx="327.4241" cy="81.4535" r="2.9325" gradientTransform="matrix(8.4191 0 0 8.4191 -2190.5276 -654.455)" gradientUnits="userSpaceOnUse">
					<stop  offset="0" style="stop-color:#C3034C"/>
					<stop  offset="0.5" style="stop-color:#C3034C"/>
					<stop  offset="0.7317" style="stop-color:#C1034C"/>
					<stop  offset="0.8275" style="stop-color:#BC044A"/>
					<stop  offset="0.8983" style="stop-color:#B20448"/>
					<stop  offset="0.9563" style="stop-color:#A40344"/>
					<stop  offset="1" style="stop-color:#95013F"/>
				</radialGradient>
				<rect x="543.4" y="8.1" class="st1" width="47.3" height="47.3"/>
			</g>
		</g>
	</g>
	<g>
		<g>
			<g>
				<defs>
					<path id="SVGID_4_" d="M551,15.7c-7.9,7.9-8.7,19.9-1.7,26.8c6.9,6.9,18.9,6.1,26.8-1.7c7.9-7.9,8.7-19.9,1.7-26.8
						c-3.1-3.1-7.4-4.7-11.8-4.7C560.9,9.2,555.3,11.4,551,15.7"/>
				</defs>
				<clipPath id="SVGID_5_">
					<use xlink:href="#SVGID_4_"  style="overflow:visible;"/>
				</clipPath>
				
					<linearGradient id="SVGID_6_" gradientUnits="userSpaceOnUse" x1="252.5225" y1="119.8829" x2="255.4545" y2="119.8829" gradientTransform="matrix(4.2344 11.634 11.634 -4.2344 -1906.9596 -2418.8945)">
					<stop  offset="0" style="stop-color:#E07C7D"/>
					<stop  offset="0.2807" style="stop-color:#D45868"/>
					<stop  offset="0.5792" style="stop-color:#CB3658"/>
					<stop  offset="0.8298" style="stop-color:#C5174F"/>
					<stop  offset="1" style="stop-color:#C3034C"/>
				</linearGradient>
				<polygon class="st2" points="579.9,-4.4 597.8,44.8 547.3,63.1 529.5,13.9 				"/>
			</g>
		</g>
	</g>
	<g>
		<g>
			<g>
				<defs>
					<path id="SVGID_7_" d="M556.7,24.6c0,1.7,1.4,3.1,3.2,3.1s3.2-1.4,3.2-3.1c0-1.7-1.4-3.1-3.2-3.1
						C558.1,21.3,556.7,22.8,556.7,24.6 M566.5,21.7L566.5,21.7L566.5,21.7h-0.2l0.2,0.2v20l-0.6,0.3l0.5,0.3c0,0,0.2,0.1,0.3,0.1
						h6.5c0.1,0,0.2-0.1,0.2-0.2v-1.8c0-0.2,0-0.2-0.1-0.2l-0.3-0.6h-4.3V21.7c0-0.1-0.1-0.2-0.1-0.2l-0.3-0.6L566.5,21.7z
						 M567.3,11.8l-0.5,0.2c-11.1,0-19.4,9.3-19.4,20.3c0,5.4,2.1,10.3,5.9,14.1c3.8,3.8,8.8,5.7,14.2,5.7c5.4,0,10.4-2.1,14.3-5.8
						c3.8-3.8,5.9-8.8,5.9-14.1v-1.2l-0.5-0.4h-14.6V33l0.3,0.5c0,0,0,0.1,0.1,0.1h11.2h1.1l0,0l0,0c-0.7,9.3-8.4,16.4-17.8,16.4
						c-4.7,0-9.2-1.8-12.6-5.2c-3.4-3.3-5.2-7.8-5.2-12.5c0-4.7,1.7-9.3,5.1-12.6c3.4-3.3,7.6-5.1,12.7-5.2h1h0.1
						c0.1,0,0.1,0,0.1-0.2v-1.9c0-0.2-0.1-0.2-0.1-0.2l-0.4-0.6L567.3,11.8z"/>
				</defs>
				<clipPath id="SVGID_8_">
					<use xlink:href="#SVGID_7_"  style="overflow:visible;"/>
				</clipPath>
				
					<linearGradient id="SVGID_9_" gradientUnits="userSpaceOnUse" x1="270.6254" y1="87.9882" x2="273.5573" y2="87.9882" gradientTransform="matrix(9.7503 9.7503 9.7503 -9.7503 -2943.3789 -1763.1707)">
					<stop  offset="0" style="stop-color:#CF3F5D"/>
					<stop  offset="0.1184" style="stop-color:#BD2F54"/>
					<stop  offset="0.2794" style="stop-color:#AB1E4A"/>
					<stop  offset="0.4596" style="stop-color:#9E0E44"/>
					<stop  offset="0.6725" style="stop-color:#970440"/>
					<stop  offset="1" style="stop-color:#95013F"/>
				</linearGradient>
				<polygon class="st3" points="567.5,-8.4 607.9,31.9 567.5,72.2 527.2,31.9 				"/>
			</g>
		</g>
	</g>
	<polygon class="st4" points="566.3,41.8 565.8,42.3 572.9,42.3 572.4,41.8 	"/>
	<polygon class="st5" points="572.4,40.4 572.9,39.9 568.3,39.9 567.7,40.4 	"/>
	<polygon class="st6" points="568.3,21.1 565.8,21.1 566.3,21.5 567.8,21.5 	"/>
	<g>
		<g>
			<g>
				<defs>
					<polygon id="SVGID_10_" points="567.8,21.5 567.8,40.3 568.3,39.9 568.3,21.1 					"/>
				</defs>
				<clipPath id="SVGID_11_">
					<use xlink:href="#SVGID_10_"  style="overflow:visible;"/>
				</clipPath>
				
					<linearGradient id="SVGID_12_" gradientUnits="userSpaceOnUse" x1="6003.4214" y1="-1483.5981" x2="6006.3589" y2="-1483.5981" gradientTransform="matrix(0.179 0 0 -0.179 -506.8491 -234.8557)">
					<stop  offset="0" style="stop-color:#BAC1C3"/>
					<stop  offset="0.1661" style="stop-color:#9AA0A2"/>
					<stop  offset="0.563" style="stop-color:#585E63"/>
					<stop  offset="0.8517" style="stop-color:#343C42"/>
					<stop  offset="1" style="stop-color:#273036"/>
				</linearGradient>
				<rect x="567.8" y="21.1" class="st7" width="0.5" height="19.2"/>
			</g>
		</g>
	</g>
	<g>
		<g>
			<g>
				<defs>
					<polygon id="SVGID_13_" points="572.4,40.4 572.4,41.8 572.9,42.3 572.9,40 					"/>
				</defs>
				<clipPath id="SVGID_14_">
					<use xlink:href="#SVGID_13_"  style="overflow:visible;"/>
				</clipPath>
				
					<linearGradient id="SVGID_15_" gradientUnits="userSpaceOnUse" x1="6858.8618" y1="-1746.124" x2="6861.7954" y2="-1746.124" gradientTransform="matrix(0.1565 0 0 -0.1565 -500.9467 -232.11)">
					<stop  offset="0" style="stop-color:#BAC1C3"/>
					<stop  offset="0.1661" style="stop-color:#9AA0A2"/>
					<stop  offset="0.563" style="stop-color:#585E63"/>
					<stop  offset="0.8517" style="stop-color:#343C42"/>
					<stop  offset="1" style="stop-color:#273036"/>
				</linearGradient>
				<rect x="572.4" y="40" class="st8" width="0.5" height="2.3"/>
			</g>
		</g>
	</g>
	<polygon class="st9" points="565.8,21.1 565.8,42.3 566.3,41.8 566.3,21.5 	"/>
	<g>
		<g>
			<g>
				<defs>
					<path id="SVGID_16_" d="M556.9,24.1c0-1.5,1.2-2.6,2.6-2.6c1.5,0,2.6,1.2,2.6,2.6c0,1.5-1.2,2.6-2.6,2.6
						C558.1,26.8,556.9,25.6,556.9,24.1 M556.4,24.1c0,1.7,1.4,3.1,3.1,3.1c1.7,0,3.1-1.4,3.1-3.1c0-1.7-1.4-3.1-3.1-3.1
						S556.4,22.5,556.4,24.1"/>
				</defs>
				<clipPath id="SVGID_17_">
					<use xlink:href="#SVGID_16_"  style="overflow:visible;"/>
				</clipPath>
				
					<linearGradient id="SVGID_18_" gradientUnits="userSpaceOnUse" x1="642.1931" y1="-207.9144" x2="645.1251" y2="-207.9144" gradientTransform="matrix(1.4846 1.4846 -1.4846 1.4846 -704.6841 -622.7119)">
					<stop  offset="0" style="stop-color:#B0BDC2"/>
					<stop  offset="1" style="stop-color:#182027"/>
				</linearGradient>
				<polygon class="st10" points="553.4,24.1 559.5,30.3 565.7,24.1 559.5,18 				"/>
			</g>
		</g>
	</g>
	<polygon class="st11" points="585.2,32.4 572.9,32.4 572.4,32.9 584.7,32.9 584.9,32.6 	"/>
	<polygon class="st6" points="572.9,31 586.6,31 587.1,30.5 572.4,30.5 	"/>
	<g>
		<g>
			<g>
				<defs>
					<path id="SVGID_19_" d="M547.1,31.7c0,5.4,2.1,10.3,5.9,14.1s8.8,5.9,14.1,5.9c5.4,0,10.4-2.1,14.2-5.9
						c3.8-3.8,5.9-8.8,5.9-14.1v-1.2l-0.5,0.5v0.7c0,5.2-2.1,10.2-5.7,13.8c-3.6,3.7-8.6,5.7-13.8,5.7s-10.2-2.1-13.8-5.7
						c-3.7-3.7-5.7-8.6-5.7-13.8c0-10.8,8.8-19.6,19.5-19.6h0.7l0.5-0.4h-1.2C556,11.7,547.1,20.7,547.1,31.7"/>
				</defs>
				<clipPath id="SVGID_20_">
					<use xlink:href="#SVGID_19_"  style="overflow:visible;"/>
				</clipPath>
				
					<linearGradient id="SVGID_21_" gradientUnits="userSpaceOnUse" x1="270.5386" y1="9.683" x2="273.4706" y2="9.683" gradientTransform="matrix(9.7535 9.7535 -9.7535 9.7535 -1991.1342 -2715.3865)">
					<stop  offset="0" style="stop-color:#BAC1C3"/>
					<stop  offset="1" style="stop-color:#363F45"/>
				</linearGradient>
				<polygon class="st12" points="527,31.7 567.1,71.7 607,31.7 567.1,-8.3 				"/>
			</g>
		</g>
	</g>
	<g>
		<g>
			<g>
				<defs>
					<path id="SVGID_22_" d="M566.8,13.6c-4.7,0.1-9.2,1.9-12.6,5.3c-3.4,3.4-5.3,8-5.3,12.8s1.9,9.4,5.3,12.8
						c3.4,3.4,7.8,5.3,12.6,5.3h0.5c9.4-0.1,17.2-7.5,17.8-16.9v-0.5l-0.2,0.2l-0.2,0.2c-0.7,9.3-8.3,16.4-17.6,16.4
						c-4.7,0-9.2-1.8-12.5-5.2c-3.3-3.3-5.1-7.8-5.1-12.5c0-4.7,1.8-9.2,5.1-12.5c3.4-3.3,7.8-5.1,12.5-5.1h1.2l-0.5-0.5h-0.5
						C567.3,13.6,566.8,13.6,566.8,13.6z"/>
				</defs>
				<clipPath id="SVGID_23_">
					<use xlink:href="#SVGID_22_"  style="overflow:visible;"/>
				</clipPath>
				
					<linearGradient id="SVGID_24_" gradientUnits="userSpaceOnUse" x1="119.2515" y1="26.599" x2="122.182" y2="26.599" gradientTransform="matrix(-12.3468 0 0 -12.3468 2057.3159 360.1123)">
					<stop  offset="0" style="stop-color:#BAC1C3"/>
					<stop  offset="1" style="stop-color:#434D52"/>
				</linearGradient>
				<rect x="549" y="13.6" class="st13" width="36.2" height="36.3"/>
			</g>
		</g>
	</g>
	<g>
		<g>
			<g>
				<defs>
					<polygon id="SVGID_25_" points="567.8,12.2 567.8,13.6 568.2,14.1 568.2,11.7 					"/>
				</defs>
				<clipPath id="SVGID_26_">
					<use xlink:href="#SVGID_25_"  style="overflow:visible;"/>
				</clipPath>
				
					<linearGradient id="SVGID_27_" gradientUnits="userSpaceOnUse" x1="6874.8354" y1="-1639.3712" x2="6877.7715" y2="-1639.3712" gradientTransform="matrix(0.1556 0 0 -0.1556 -501.9366 -242.2214)">
					<stop  offset="0" style="stop-color:#BAC1C3"/>
					<stop  offset="0.1661" style="stop-color:#9AA0A2"/>
					<stop  offset="0.563" style="stop-color:#585E63"/>
					<stop  offset="0.8517" style="stop-color:#343C42"/>
					<stop  offset="1" style="stop-color:#273036"/>
				</linearGradient>
				<rect x="567.8" y="11.7" class="st14" width="0.5" height="2.4"/>
			</g>
		</g>
	</g>
	<g>
		<g>
			<g>
				<defs>
					<path id="SVGID_28_" d="M566.1,21.3V42h6.5v-1.8h-4.7V21.3H566.1L566.1,21.3z M566.8,11.9c-10.7,0.1-19.5,8.9-19.5,19.7
						c0,5.3,2.1,10.2,5.8,14c3.7,3.7,8.7,5.8,14,5.8s10.2-2.1,14-5.8c3.7-3.7,5.8-8.7,5.8-14v-0.9h-0.7h-13.3v1.8H585v0.2
						c-0.7,9.3-8.4,16.7-17.8,16.7c-4.8,0-9.3-1.8-12.6-5.3c-3.4-3.4-5.2-7.8-5.2-12.6s1.8-9.3,5.2-12.6c3.4-3.4,7.9-5.2,12.6-5.2
						c0.2,0,0.7,0,1,0v-1.8c-0.2,0-0.5,0-0.7,0L566.8,11.9L566.8,11.9z"/>
				</defs>
				<clipPath id="SVGID_29_">
					<use xlink:href="#SVGID_28_"  style="overflow:visible;"/>
				</clipPath>
				
					<radialGradient id="SVGID_30_" cx="303.748" cy="22.8933" r="2.9327" gradientTransform="matrix(10.3732 0 0 -10.3732 -2591.9319 260.3754)" gradientUnits="userSpaceOnUse">
					<stop  offset="0" style="stop-color:#FFFFFF"/>
					<stop  offset="0.35" style="stop-color:#FFFFFF"/>
					<stop  offset="0.5051" style="stop-color:#FCFDFD"/>
					<stop  offset="0.6648" style="stop-color:#F2F4F5"/>
					<stop  offset="0.8266" style="stop-color:#E0E5E7"/>
					<stop  offset="0.989" style="stop-color:#C6D0D4"/>
					<stop  offset="1" style="stop-color:#C4CFD3"/>
				</radialGradient>
				<rect x="547.3" y="11.9" class="st15" width="39.5" height="39.5"/>
			</g>
		</g>
	</g>
	<g>
		<g>
			<g>
				<defs>
					<path id="SVGID_31_" d="M556.7,24.1c0,1.6,1.2,2.8,2.8,2.8s2.8-1.2,2.8-2.8s-1.2-2.8-2.8-2.8C558,21.3,556.7,22.6,556.7,24.1"
						/>
				</defs>
				<clipPath id="SVGID_32_">
					<use xlink:href="#SVGID_31_"  style="overflow:visible;"/>
				</clipPath>
				
					<radialGradient id="SVGID_33_" cx="889.4357" cy="-130.1434" r="2.9311" gradientTransform="matrix(1.5057 0 0 -1.5057 -780.8522 -172.8134)" gradientUnits="userSpaceOnUse">
					<stop  offset="0" style="stop-color:#FFFFFF"/>
					<stop  offset="0.35" style="stop-color:#FFFFFF"/>
					<stop  offset="0.5352" style="stop-color:#FCFDFD"/>
					<stop  offset="0.7271" style="stop-color:#F2F4F5"/>
					<stop  offset="0.9214" style="stop-color:#E0E6E7"/>
					<stop  offset="1" style="stop-color:#D7DEE0"/>
				</radialGradient>
				<rect x="556.7" y="21.3" class="st16" width="5.7" height="5.7"/>
			</g>
		</g>
	</g>
	<path class="st17" d="M560,21.8c0.7,0,1.2,0.2,1.7,0.6c-0.5-0.7-1.3-1.1-2.2-1.1c-1.6,0-2.8,1.2-2.8,2.8c0,0.9,0.4,1.7,1.1,2.2
		c-0.4-0.5-0.6-1.1-0.6-1.7C557.2,23.1,558.5,21.8,560,21.8"/>
	<path class="st17" d="M568,11.9c-0.2,0-0.7,0-1,0c-10.9,0-19.7,8.9-19.7,19.7c0,5.3,2.1,10.2,5.8,14c0.1,0.1,0.2,0.2,0.4,0.3
		c-3.6-3.7-5.5-8.5-5.5-13.6C548,21.5,555.7,12.5,568,11.9"/>
	<path class="st17" d="M568,40.2c0,0,1.3,0.4,4.7,0.4v-0.4H568z"/>
	<path class="st17" d="M568,21.9v-0.6h-1.9V42c0,0,0.6-3.1,0.6-20.1H568z"/>
	<path class="st17" d="M586.8,30.8h-14.1v1.8h0.5v-1.4C585.5,31.3,586.8,30.8,586.8,30.8"/>
	<path class="st17" d="M584.9,32.6c0,0,0,0.2,0,0.3c-0.7,9.3-8.4,16.7-17.8,16.7c-4.8,0-9.3-1.8-12.6-5.3c-2.2-2.2-3.8-4.9-4.5-7.8
		c2.1,7.8,9.2,13.3,17.6,13.3c9,0,17.3-7,17.8-17.2H584.9L584.9,32.6z"/>
</g>
</svg>
