<?xml version="1.0" encoding="iso-8859-1"?>
<!-- Generator: Adobe Illustrator 19.0.0, SVG Export Plug-In . SVG Version: 6.00 Build 0)  -->
<svg xmlns="http://www.w3.org/2000/svg" xmlns:xlink="http://www.w3.org/1999/xlink" version="1.1" id="Capa_1" x="0px" y="0px" viewBox="0 0 512.035 512.035" style="enable-background:new 0 0 512.035 512.035;" xml:space="preserve" width="512px" height="512px">
<g>
	<g>
		<path d="M373.333,469.351v21.333H352v-21.333h-21.333v32c0,5.891,4.776,10.667,10.667,10.667H384    c5.891,0,10.667-4.776,10.667-10.667v-32H373.333z" fill="#006DF0"/>
	</g>
</g>
<g>
	<g>
		<path d="M458.667,0.018H53.333C23.893,0.053,0.035,23.91,0,53.351v256c0.035,29.441,23.893,53.298,53.333,53.333h64v74.667    c-0.001,4.314,2.596,8.204,6.581,9.856c1.294,0.54,2.683,0.815,4.085,0.811c2.829-0.001,5.541-1.125,7.541-3.125l82.208-82.208    h16.917v-21.333h-21.333c-2.829,0.001-5.541,1.125-7.541,3.125l-67.125,67.125v-59.584c0-5.891-4.776-10.667-10.667-10.667H53.333    c-17.673,0-32-14.327-32-32v-256c0-17.673,14.327-32,32-32h405.333c17.673,0,32,14.327,32,32v64H512v-64    C511.965,23.91,488.107,0.053,458.667,0.018z" fill="#006DF0"/>
	</g>
</g>
<g>
	<g>
		<path d="M426.667,99.759c-74.516-35.346-163.578-3.593-198.924,70.924c-35.346,74.516-3.592,163.578,70.924,198.924v25.077H320    v-32c0-4.305-2.587-8.188-6.56-9.845c-31.168-12.986-55.943-37.761-68.929-68.929c-27.187-65.256,3.673-140.195,68.929-167.382    c65.256-27.187,140.195,3.673,167.382,68.929s-3.673,140.195-68.929,167.382c-3.973,1.657-6.56,5.54-6.56,9.845v32h21.333v-25.077    c31.111-14.757,56.167-39.813,70.924-70.924C532.937,224.167,501.183,135.105,426.667,99.759z" fill="#006DF0"/>
	</g>
</g>
<g>
	<g>
		<path d="M405.333,426.684v32H320v-32h-21.333v42.667c0,5.891,4.776,10.667,10.667,10.667H416c5.891,0,10.667-4.776,10.667-10.667    v-42.667H405.333z" fill="#006DF0"/>
	</g>
</g>
<g>
	<g>
		<rect x="277.333" y="416.018" width="170.667" height="21.333" fill="#006DF0"/>
	</g>
</g>
<g>
	<g>
		<path d="M405.333,170.684c-17.673,0-32,14.327-32,32h21.333c0-5.891,4.776-10.667,10.667-10.667    c5.891,0,10.667,4.776,10.667,10.667c0,5.891-4.776,10.667-10.667,10.667H320c-5.891,0-10.667-4.776-10.667-10.667    c0-5.891,4.776-10.667,10.667-10.667s10.667,4.776,10.667,10.667H352c0-17.673-14.327-32-32-32s-32,14.327-32,32    c0,17.673,14.327,32,32,32h85.333c17.673,0,32-14.327,32-32C437.333,185.011,423.006,170.684,405.333,170.684z" fill="#006DF0"/>
	</g>
</g>
<g>
	<g>
		<rect x="352" y="224.018" width="21.333" height="170.667" fill="#006DF0"/>
	</g>
</g>
<g>
	<g>
		<rect x="64" y="64.018" width="21.333" height="21.333" fill="#006DF0"/>
	</g>
</g>
<g>
	<g>
		<rect x="106.667" y="64.018" width="21.333" height="21.333" fill="#006DF0"/>
	</g>
</g>
<g>
	<g>
		<rect x="64" y="117.351" width="149.333" height="21.333" fill="#006DF0"/>
	</g>
</g>
<g>
	<g>
		<rect x="64" y="170.684" width="117.333" height="21.333" fill="#006DF0"/>
	</g>
</g>
<g>
	<g>
		<rect x="64" y="224.018" width="96" height="21.333" fill="#006DF0"/>
	</g>
</g>
<g>
	<g>
		<rect x="64" y="277.351" width="128" height="21.333" fill="#006DF0"/>
	</g>
</g>
<g>
</g>
<g>
</g>
<g>
</g>
<g>
</g>
<g>
</g>
<g>
</g>
<g>
</g>
<g>
</g>
<g>
</g>
<g>
</g>
<g>
</g>
<g>
</g>
<g>
</g>
<g>
</g>
<g>
</g>
</svg>
